<?xml version="1.0" encoding="utf-8"?>
<!-- Generator: Adobe Illustrator 16.0.0, SVG Export Plug-In . SVG Version: 6.00 Build 0)  -->
<!DOCTYPE svg PUBLIC "-//W3C//DTD SVG 1.1//EN" "http://www.w3.org/Graphics/SVG/1.1/DTD/svg11.dtd">
<svg version="1.1" xmlns="http://www.w3.org/2000/svg" xmlns:xlink="http://www.w3.org/1999/xlink" x="0px" y="0px"
	 width="347.982px" height="608px" viewBox="0 0 347.982 608" style="enable-background:new 0 0 347.982 608;" xml:space="preserve"
	>
<style type="text/css">
<![CDATA[
	.st0{clip-path:url(#SVGID_20_);fill:#EACD50;}
	.st1{clip-path:url(#SVGID_18_);fill:#FFFFFF;}
	.st2{clip-path:url(#SVGID_4_);fill:#D1B74A;}
	.st3{clip-path:url(#SVGID_10_);fill:#848484;}
	.st4{clip-path:url(#SVGID_10_);fill:#B59E40;}
	.st5{clip-path:url(#SVGID_10_);fill:#EACD50;}
	.st6{fill:#E8E8E8;}
	.st7{fill:#EACD4F;}
	.st8{clip-path:url(#SVGID_18_);fill:#D1B74A;}
	.st9{clip-path:url(#SVGID_12_);fill:#EACD50;}
	.st10{clip-path:url(#SVGID_4_);fill:none;stroke:#898989;stroke-miterlimit:10;}
	.st11{fill:#F4F4F4;}
	.st12{clip-path:url(#SVGID_2_);}
	.st13{clip-path:url(#SVGID_6_);}
	.st14{fill:#919191;}
	.st15{clip-path:url(#SVGID_10_);fill:#FFFFFF;}
	.st16{clip-path:url(#SVGID_4_);fill:#848484;}
	.st17{clip-path:url(#SVGID_4_);fill:#B59E40;}
	.st18{clip-path:url(#SVGID_4_);fill:#EACD50;}
	.st19{clip-path:url(#SVGID_16_);fill:#EACD50;}
	.st20{clip-path:url(#SVGID_10_);fill:#D1B74A;}
	.st21{clip-path:url(#SVGID_18_);fill:#848484;}
	.st22{clip-path:url(#SVGID_18_);fill:#B59E40;}
	.st23{clip-path:url(#SVGID_18_);fill:#EACD50;}
	.st24{clip-path:url(#SVGID_8_);fill:#EACD50;}
	.st25{clip-path:url(#SVGID_4_);fill:#FFFFFF;}
	.st26{clip-path:url(#SVGID_14_);}
	.st27{fill:#A8A8A8;}
]]>
</style>
<g id="Layer_1">
</g>
<g id="Layer_2">
	<g id="XMLID_2_">
		<g>
		</g>
	</g>
	<g>
		<g id="XMLID_3_">
			<g>
				<path class="st7" d="M343.93,533.19c-9.2-33.811-81.34-61.69-169.5-61.69c-94.44,0-170,30-170,67h-0.5V356.86
					c0,40.87,77.11,74,171,74c87.64,0,159.78-28.86,169-65.94C343.93,389.75,343.93,456.12,343.93,533.19z"/>
				<path class="st7" d="M344.93,540.5c0,37-76.06,65-170.5,65s-170-30-170-67s75.56-67,170-67c88.16,0,160.3,27.88,169.5,61.69
					C344.59,535.6,344.93,538.04,344.93,540.5z"/>
				<path class="st7" d="M344.93,218.53v134l-0.28,0.04c-5.109-38.87-79.14-69.71-169.72-69.71S9.39,313.7,4.22,352.57l-0.29-0.04
					v-134c0-0.11,0-0.22,0-0.33c0-39.34,26-44.67,26-44.67v-39.31c27.06,17.41,81.84,29.31,145,29.31c62.4,0,116.6-11.62,144-28.68
					v38.68c0,0,26,5.33,26,44.67C344.93,218.31,344.93,218.42,344.93,218.53z"/>
				<path class="st7" d="M343.93,364.92c-9.22,37.08-81.36,65.94-169,65.94c-93.89,0-171-33.13-171-74c0-1.44,0.1-2.87,0.29-4.29
					c5.17-38.87,80.13-69.71,170.71-69.71s164.61,30.84,169.72,69.71c0.19,1.42,0.28,2.85,0.28,4.29
					C344.93,359.58,344.59,362.27,343.93,364.92z"/>
				<path class="st14" d="M337.93,55.53v54c0-9.83-7.93-19.05-21.8-27C330,74.58,337.93,65.36,337.93,55.53z"/>
				<path class="st14" d="M337.93,109.53c0,9.15-6.87,17.77-19,25.32c-27.4,17.06-81.6,28.68-144,28.68
					c-63.16,0-117.94-11.9-145-29.31c-11.51-7.4-18-15.79-18-24.69c0-9.83,7.93-19.05,21.8-27c28.19,16.14,80.87,27,141.2,27
					s113.01-10.86,141.2-27C330,90.48,337.93,99.7,337.93,109.53z"/>
				<path class="st27" d="M337.93,55.53c0,9.83-7.93,19.05-21.8,27c-28.19-16.14-80.87-27-141.2-27s-113.01,10.86-141.2,27
					c-13.87-7.95-21.8-17.17-21.8-27c0-29.82,72.98-54,163-54S337.93,25.71,337.93,55.53z"/>
				<path class="st27" d="M174.93,55.53c60.33,0,113.01,10.86,141.2,27c-28.19,16.14-80.87,27-141.2,27s-113.01-10.86-141.2-27
					C61.92,66.39,114.6,55.53,174.93,55.53z"/>
				<path class="st14" d="M11.93,55.53c0,9.83,7.93,19.05,21.8,27c-13.87,7.95-21.8,17.17-21.8,27V55.53z"/>
			</g>
			<g>
			</g>
		</g>
	</g>
	<rect x="333.93" y="355.5" class="st7" width="11" height="186"/>
	<g>
		<g id="XMLID_6_">
			<g>
				<path class="st7" d="M1188.008,515.068c0,46.781-96.142,82.174-215.516,82.174s-214.884-37.921-214.884-84.689
					s95.51-84.677,214.884-84.677c111.436,0,202.622,35.229,214.251,77.952C1187.578,508.875,1188.008,511.959,1188.008,515.068z"/>
				<path class="st27" d="M973.124-166.188c113.787,0,206.035,30.539,206.035,68.232c0,12.438-10.023,24.08-27.556,34.128
					c-35.633-20.376-102.222-34.128-178.479-34.128c-76.259,0-142.847,13.752-178.479,34.128
					c-17.532-10.049-27.556-21.69-27.556-34.128C767.089-135.649,859.337-166.188,973.124-166.188z"/>
				<path class="st14" d="M1179.159-97.957v68.282c0-12.438-10.023-24.08-27.556-34.154
					C1169.136-73.877,1179.159-85.519,1179.159-97.957z"/>
				<path class="st7" d="M1187.653,277.521c0.24,1.795,0.354,3.603,0.354,5.41c0,3.438-0.43,6.838-1.265,10.176
					c-11.642,46.87-102.841,83.362-213.619,83.362c-118.262,0-215.465-41.586-216.147-92.994v-0.544c0-1.807,0.126-3.615,0.366-5.41
					c6.535-49.146,101.286-88.103,215.781-88.103S1181.194,228.375,1187.653,277.521z"/>
				<path class="st27" d="M973.124-97.957c76.258,0,142.847,13.752,178.479,34.128c-35.633,20.414-102.222,34.154-178.479,34.154
					c-76.259,0-142.847-13.74-178.479-34.154C830.277-84.204,896.865-97.957,973.124-97.957z"/>
				<path class="st7" d="M789.841,51.198V1.522C824.045,23.541,893.288,38.57,973.124,38.57c78.875,0,147.385-14.701,182.019-36.239
					v48.867c0,0,32.865,6.75,32.865,56.477c0,0.139,0,0.278,0,0.43V277.47l-0.354,0.051
					c-6.459-49.146-100.034-88.103-214.529-88.103s-209.246,38.957-215.781,88.103l-0.366-0.051V108.104c0-0.151,0-0.291,0-0.43
					C756.977,57.948,789.841,51.198,789.841,51.198z"/>
				<path class="st14" d="M973.124-29.674c76.258,0,142.847-13.74,178.479-34.154c17.532,10.074,27.556,21.716,27.556,34.154
					c0,11.553-8.684,22.437-24.017,32.005C1120.509,23.87,1051.999,38.57,973.124,38.57c-79.836,0-149.079-15.029-183.283-37.048
					c-14.549-9.341-22.752-19.959-22.752-31.196c0-12.438,10.023-24.08,27.556-34.154C830.277-43.414,896.865-29.674,973.124-29.674
					z"/>
				<path class="st14" d="M767.089-97.957c0,12.438,10.023,24.08,27.556,34.128c-17.532,10.074-27.556,21.716-27.556,34.154V-97.957
					z"/>
				<path class="st7" d="M756.977,283.475c0.683,51.408,97.886,92.994,216.147,92.994c110.778,0,201.978-36.492,213.619-83.362
					c0,31.36,0,115.253,0,212.722c-11.629-42.724-102.815-77.952-214.251-77.952c-119.374,0-214.884,37.908-214.884,84.677h-0.632
					V283.475z"/>
			</g>
			<g>
			</g>
		</g>
	</g>
	<rect x="1173.93" y="281.5" class="st7" width="14" height="235"/>
</g>
<g id="Layer_4">
	<g id="XMLID_1_">
		<g>
			<path class="st7" d="M-365.07,383.5v134l-0.28,0.04c-5.109-38.87-79.14-69.71-169.72-69.71s-165.54,30.84-170.71,69.71
				l-0.29-0.04v-134c0-0.11,0-0.22,0-0.33c0-39.34,26-44.67,26-44.67v-39.31c27.06,17.41,81.84,29.31,145,29.31
				c62.4,0,116.6-11.62,144-28.68v38.68c0,0,26,5.33,26,44.67C-365.07,383.28-365.07,383.39-365.07,383.5z"/>
			<path class="st7" d="M-365.351,517.54c0.19,1.42,0.28,2.85,0.28,4.29c0,40.87-76.11,74-170,74s-171-33.13-171-74
				c0-1.44,0.1-2.87,0.29-4.29c5.17-38.87,80.13-69.71,170.71-69.71S-370.46,478.67-365.351,517.54z"/>
			<path class="st14" d="M-372.07,220.5v54c0-9.83-7.93-19.05-21.8-27C-380,239.55-372.07,230.33-372.07,220.5z"/>
			<path class="st14" d="M-680.07,299.19c-11.51-7.4-18-15.79-18-24.69c0-9.83,7.93-19.05,21.8-27c28.19,16.14,80.87,27,141.2,27
				s113.01-10.86,141.2-27c13.87,7.95,21.8,17.17,21.8,27c0,9.15-6.87,17.77-19,25.32c-27.4,17.06-81.6,28.68-144,28.68
				C-598.23,328.5-653.01,316.6-680.07,299.19z"/>
			<path class="st27" d="M-372.07,220.5c0,9.83-7.93,19.05-21.8,27c-28.19-16.14-80.87-27-141.2-27s-113.01,10.86-141.2,27
				c-13.87-7.95-21.8-17.17-21.8-27c0-29.82,72.98-54,163-54S-372.07,190.68-372.07,220.5z"/>
			<path class="st27" d="M-535.07,220.5c60.33,0,113.01,10.86,141.2,27c-28.19,16.14-80.87,27-141.2,27s-113.01-10.86-141.2-27
				C-648.08,231.36-595.4,220.5-535.07,220.5z"/>
			<path class="st14" d="M-698.07,220.5c0,9.83,7.93,19.05,21.8,27c-13.87,7.95-21.8,17.17-21.8,27V220.5z"/>
		</g>
		<g>
		</g>
	</g>
	<ellipse class="st11" cx="-535.071" cy="218.165" rx="142.16" ry="43.403"/>
	<g>
		<g>
			<defs>
				<rect id="SVGID_1_" x="-848.403" y="122.498" width="626.666" height="191.334"/>
			</defs>
			<clipPath id="SVGID_2_">
				<use xlink:href="#SVGID_1_"  style="overflow:visible;"/>
			</clipPath>
			<g class="st12">
				<defs>
					<rect id="SVGID_3_" x="-848.403" y="122.498" width="626.666" height="191.334"/>
				</defs>
				<clipPath id="SVGID_4_">
					<use xlink:href="#SVGID_3_"  style="overflow:visible;"/>
				</clipPath>
				<path class="st18" d="M-508.203,219.477c-0.136,0.034-0.271,0.067-0.405,0.101c-3.191-0.929-9.916-3.062-21.311-7.449
					c-11.763-4.529-16.928-7.004-18.99-8.097c0.123-0.029,0.243-0.059,0.369-0.087L-508.203,219.477z"/>
				<path class="st18" d="M-508.203,219.477l-40.336-15.532c5.443-1.282,10.29-2.36,14.372-3.235
					c2.257,1.17,7.478,3.62,18.665,7.929c10.902,4.197,17.532,6.332,20.877,7.322C-498.28,216.952-502.789,218.133-508.203,219.477"
					/>
				<path class="st18" d="M-515.149,221.168c-5,1.195-9.463,2.213-13.331,3.066l-39.838-15.341
					c3.665-0.977,7.957-2.083,12.847-3.281c2.056,1.09,7.215,3.565,18.999,8.103C-525.061,218.109-518.333,220.242-515.149,221.168"
					/>
				<path class="st18" d="M-568.318,208.893l39.839,15.341c-0.158,0.036-0.318,0.07-0.473,0.104
					c-3.305-0.973-9.962-3.108-21.002-7.359c-11.355-4.372-16.561-6.83-18.763-7.978
					C-568.584,208.964-568.453,208.929-568.318,208.893"/>
				<path class="st18" d="M-489.571,214.556c-0.158,0.044-0.32,0.09-0.483,0.137c-3.434-1.026-9.992-3.157-20.578-7.233
					c-10.851-4.178-16.085-6.608-18.455-7.817c0.173-0.036,0.345-0.071,0.51-0.105L-489.571,214.556z"/>
				<path class="st18" d="M-535.465,225.734c-6.856,1.43-10.57,2.074-10.57,2.074s-8.48-1.5-21.595-6.55
					c-13.115-5.05-16.116-7.971-16.116-7.971s3.128-0.998,9.091-2.666c2.333,1.198,7.565,3.634,18.521,7.854
					C-545.455,222.586-538.873,224.719-535.465,225.734"/>
				<path class="st18" d="M-489.571,214.556l-39.005-15.019c5.411-1.109,8.495-1.662,8.495-1.662s9.511,2.355,21.013,6.784
					c11.503,4.43,16.697,7.737,16.697,7.737S-484.677,213.162-489.571,214.556"/>
				<path class="st18" d="M-571.688,219.633l-31.587,7.647c0.688,0.461,1.422,0.914,2.204,1.358c1.322,0.75,2.782,1.474,4.369,2.172
					l33.179-8.032L-571.688,219.633z"/>
				<path class="st16" d="M-535.73,193.327c-44.469,0-80.518,11.006-80.518,24.583c0,3.178,1.979,6.215,5.577,9.003
					c0.702,0.544,1.468,1.078,2.289,1.603c0.716,0.456,1.471,0.903,2.273,1.342c1.356,0.743,2.835,1.463,4.429,2.156
					c0.373,0.163,0.749,0.323,1.134,0.482c2.062,0.853,4.301,1.664,6.699,2.427c14.653,4.665,35.275,7.569,58.117,7.569
					c44.469,0,80.516-11.006,80.516-24.583S-491.261,193.327-535.73,193.327 M-483.282,233.923
					c-6.815,2.08-14.747,3.713-23.578,4.854c-9.141,1.18-18.854,1.778-28.87,1.778s-19.729-0.598-28.87-1.778
					c-8.833-1.141-16.766-2.774-23.578-4.854c-0.229-0.069-0.45-0.141-0.672-0.21c-2.437-0.763-4.681-1.571-6.724-2.42
					c-0.383-0.16-0.757-0.322-1.128-0.483c-1.587-0.699-3.046-1.423-4.37-2.172c-0.782-0.444-1.516-0.897-2.204-1.358
					c-0.272-0.185-0.543-0.369-0.802-0.556c-0.49-0.355-0.95-0.712-1.38-1.073c-2.952-2.474-4.446-5.072-4.446-7.742
					c0-3.058,1.963-6.024,5.827-8.814c3.736-2.697,9.085-5.119,15.9-7.199c6.812-2.08,14.746-3.713,23.578-4.854
					c9.141-1.18,18.854-1.779,28.87-1.779s19.729,0.599,28.87,1.779c8.831,1.141,16.763,2.774,23.578,4.854
					c6.815,2.081,12.163,4.502,15.898,7.199c3.867,2.791,5.828,5.756,5.828,8.814s-1.96,6.023-5.828,8.814
					C-471.119,229.42-476.467,231.842-483.282,233.923"/>
				<path class="st17" d="M-615.556,235.071c-1.228-0.895-18.61-1.5-18.61-1.5l7.369,3.605l-7.369,2.5c0,0,4.157-0.02,16.061,1.25
					c11.903,1.268,17.57,1.788,23.804,2.076c0.71-1.009,1.133-1.655,1.133-1.655S-614.327,235.965-615.556,235.071"/>
				<path class="st17" d="M-454.585,234.956c1.229-0.895,18.609-1.5,18.609-1.5l-7.368,3.604l7.368,2.5c0,0-4.155-0.02-16.058,1.25
					c-11.905,1.268-17.572,1.787-23.806,2.076c-0.709-1.009-1.132-1.655-1.132-1.655S-455.812,235.85-454.585,234.956"/>
				<path class="st2" d="M-451.515,239.253c0,0-18.655,3.23-84.038,3.23c-65.38,0-84.814-3.23-84.814-3.23v-8.652
					c0,0,34.444,2.83,84.426,2.83c49.981,0,84.426-2.83,84.426-2.83V239.253z"/>
				<path class="st25" d="M-594.035,238.172c-0.411-0.476-0.816-0.953-1.215-1.429c-0.286,0.645-0.571,1.291-0.858,1.937
					c-0.995-0.042-1.99-0.083-2.981-0.127l1.892-4.059c1.05,0.045,2.1,0.09,3.151,0.133c0.583,0.669,1.178,1.339,1.788,2.007
					c1.137-0.6,2.261-1.202,3.374-1.804c1.053,0.039,2.104,0.077,3.158,0.115c-0.512,1.357-1.023,2.715-1.535,4.074
					c-0.998-0.036-1.993-0.071-2.989-0.108c0.257-0.647,0.516-1.293,0.775-1.94c-0.794,0.43-1.593,0.859-2.399,1.288
					C-592.597,238.23-593.316,238.202-594.035,238.172"/>
				<path class="st25" d="M-582.174,238.598c-0.207,0.189-0.414,0.379-0.625,0.569c-0.987-0.031-1.974-0.064-2.961-0.098
					c1.483-1.325,2.938-2.652,4.364-3.981c1.276,0.041,2.553,0.08,3.833,0.117c0.529,1.389,1.091,2.778,1.683,4.166
					c-0.989-0.027-1.978-0.055-2.967-0.083c-0.08-0.199-0.16-0.397-0.238-0.595C-580.114,238.663-581.145,238.63-582.174,238.598
					 M-579.434,237.799c-0.167-0.43-0.333-0.859-0.495-1.289c-0.438,0.411-0.881,0.822-1.323,1.234
					C-580.646,237.763-580.04,237.781-579.434,237.799"/>
				<path class="st25" d="M-570.348,235.399c-0.277,1.071-0.553,2.142-0.83,3.211c1.967,0.048,3.933,0.092,5.901,0.13
					c-0.063,0.292-0.126,0.585-0.19,0.877c-2.97-0.06-5.938-0.127-8.906-0.205c0.383-1.362,0.764-2.724,1.147-4.086
					C-572.268,235.352-571.306,235.375-570.348,235.399"/>
				<path class="st25" d="M-559.763,235.614c-0.189,1.073-0.382,2.145-0.571,3.218c1.969,0.032,3.938,0.061,5.908,0.086
					c-0.04,0.292-0.078,0.584-0.117,0.877c-2.975-0.037-5.946-0.083-8.919-0.139c0.273-1.364,0.545-2.728,0.818-4.093
					C-561.685,235.581-560.724,235.599-559.763,235.614"/>
				<path class="st25" d="M-543.396,235.79c-0.016,0.293-0.033,0.587-0.049,0.879c-1.936-0.009-3.872-0.023-5.807-0.04
					c-0.023,0.244-0.048,0.488-0.07,0.732c1.62,0.014,3.243,0.026,4.867,0.035c-0.02,0.292-0.037,0.586-0.056,0.879
					c-1.633-0.009-3.266-0.021-4.898-0.036c-0.022,0.244-0.047,0.488-0.072,0.732c1.971,0.018,3.943,0.032,5.912,0.042
					c-0.015,0.292-0.031,0.586-0.045,0.879c-2.975-0.016-5.95-0.039-8.925-0.072c0.162-1.366,0.326-2.732,0.487-4.098
					C-549.166,235.752-546.282,235.776-543.396,235.79"/>
				<path class="st25" d="M-541.449,235.798c2.886,0.011,5.771,0.012,8.657,0.005c0.009,0.293,0.016,0.585,0.024,0.879
					c-0.967,0.003-1.937,0.004-2.907,0.004c0.007,1.074,0.013,2.148,0.02,3.222c-0.993,0-1.985,0-2.975-0.001
					c0.015-1.074,0.035-2.148,0.052-3.222c-0.968-0.001-1.935-0.004-2.903-0.008C-541.472,236.384-541.459,236.091-541.449,235.798"
					/>
				<path class="st25" d="M-530.846,235.797c2.885-0.012,5.77-0.032,8.654-0.061c0.03,0.293,0.062,0.585,0.095,0.878
					c-0.969,0.009-1.937,0.019-2.904,0.026c0.092,1.074,0.184,2.147,0.275,3.221c-0.991,0.008-1.984,0.015-2.975,0.021
					c-0.068-1.073-0.136-2.147-0.206-3.221c-0.969,0.006-1.936,0.011-2.903,0.014C-530.82,236.383-530.836,236.09-530.846,235.797"
					/>
				<path class="st25" d="M-507.533,237.374c0.503,0.182,0.792,0.437,0.864,0.764c0.022,0.097,0.044,0.194,0.066,0.292
					c0.175,0.778-1.059,1.197-3.704,1.245c-1.649,0.03-3.301,0.057-4.952,0.081c-0.214-1.366-0.427-2.731-0.637-4.097
					c1.538-0.022,3.073-0.047,4.612-0.075c2.558-0.045,3.923,0.316,4.099,1.096C-507.125,236.958-507.239,237.19-507.533,237.374
					 M-512.86,236.491c0.037,0.195,0.071,0.39,0.105,0.585c0.583-0.01,1.167-0.02,1.75-0.03c0.647-0.011,0.95-0.115,0.911-0.311
					c-0.038-0.194-0.381-0.286-1.023-0.275C-511.698,236.472-512.279,236.482-512.86,236.491 M-512.599,237.954
					c0.051,0.293,0.102,0.585,0.156,0.877c0.656-0.011,1.311-0.022,1.967-0.034c0.656-0.012,0.966-0.115,0.926-0.311
					c-0.019-0.098-0.039-0.195-0.059-0.292c-0.038-0.194-0.383-0.286-1.036-0.274S-511.948,237.943-512.599,237.954"/>
				<path class="st25" d="M-496.674,235.249c0.088,0.292,0.177,0.583,0.264,0.875c-1.931,0.055-3.861,0.105-5.793,0.152
					c0.063,0.243,0.126,0.487,0.188,0.729c1.62-0.039,3.239-0.081,4.857-0.125c0.085,0.292,0.172,0.583,0.258,0.875
					c-1.628,0.044-3.259,0.086-4.889,0.126c0.065,0.243,0.126,0.487,0.19,0.729c1.965-0.047,3.932-0.098,5.896-0.153
					c0.088,0.291,0.177,0.583,0.265,0.875c-2.966,0.084-5.933,0.159-8.904,0.224c-0.323-1.363-0.644-2.727-0.965-4.09
					C-502.428,235.402-499.55,235.329-496.674,235.249"/>
				<path class="st25" d="M-486.115,234.911c0.112,0.291,0.223,0.582,0.336,0.873c-1.926,0.068-3.855,0.134-5.785,0.195
					c0.083,0.243,0.167,0.485,0.248,0.729c1.618-0.052,3.233-0.105,4.847-0.162c0.108,0.291,0.219,0.582,0.33,0.873
					c-1.625,0.057-3.252,0.112-4.877,0.162c0.079,0.243,0.165,0.486,0.245,0.729c1.963-0.062,3.925-0.128,5.887-0.199
					c0.11,0.291,0.225,0.582,0.333,0.873c-2.958,0.105-5.921,0.203-8.886,0.291c-0.434-1.361-0.864-2.721-1.297-4.082
					C-491.858,235.106-488.985,235.013-486.115,234.911"/>
				<path class="st25" d="M-483.076,237.602c0.978-0.036,1.954-0.074,2.931-0.112c0.019,0.048,0.041,0.097,0.061,0.145
					c0.08,0.194,0.447,0.278,1.1,0.251c0.328-0.013,0.653-0.026,0.979-0.04c0.653-0.026,0.935-0.137,0.85-0.33
					c-0.022-0.048-0.042-0.097-0.064-0.146c-0.086-0.193-0.454-0.276-1.103-0.25c-0.323,0.013-0.648,0.027-0.971,0.04
					c-2.601,0.103-4.056-0.238-4.364-1.013c-0.017-0.048-0.038-0.097-0.058-0.146c-0.308-0.776,0.816-1.209,3.359-1.31
					c0.321-0.014,0.639-0.025,0.957-0.039c2.546-0.104,3.998,0.226,4.362,1c0.022,0.048,0.046,0.097,0.068,0.145
					c-0.966,0.042-1.93,0.083-2.895,0.123c-0.021-0.049-0.042-0.097-0.063-0.146c-0.087-0.193-0.451-0.276-1.091-0.25
					c-0.323,0.013-0.641,0.027-0.96,0.039c-0.643,0.025-0.923,0.135-0.842,0.329c0.021,0.048,0.041,0.096,0.063,0.146
					c0.08,0.193,0.444,0.278,1.088,0.252c0.323-0.013,0.646-0.026,0.967-0.039c2.577-0.104,4.044,0.224,4.408,0.997
					c0.022,0.049,0.046,0.097,0.068,0.145c0.362,0.773-0.769,1.218-3.398,1.326c-0.328,0.013-0.658,0.027-0.988,0.041
					c-2.628,0.104-4.1-0.236-4.406-1.012C-483.035,237.699-483.056,237.65-483.076,237.602"/>
				<path class="st18" d="M-520.665,222.413c-5.615,1.933-8.245,4.925-3.704,7.697c2.271,1.423-5.976,3.539-7.05,0.657
					c-1.074-2.882-3.346-5.217-8.962-4.049c-7.407-1.35-14.016-7.55-12.813-7.096c5.407,2.043,20.043,3.447,14.786,1.642
					c-5.079-2.006,7.289-1.496,11.052-0.547S-520.665,222.413-520.665,222.413"/>
				<ellipse class="st10" cx="-535.07" cy="218.165" rx="141" ry="43.05"/>
			</g>
			<g class="st12">
				
					<text transform="matrix(0.3293 -0.3038 0.9949 0.1005 -638.6611 209.2695)" style="font-family:'TypoSlabserif-Light'; font-size:17.3352;">P</text>
			</g>
			<g class="st12">
				
					<text transform="matrix(0.4088 -0.3029 0.9922 0.1248 -635.6606 206.5562)" style="font-family:'TypoSlabserif-Light'; font-size:16.93;">r</text>
			</g>
			<g class="st12">
				
					<text transform="matrix(0.4893 -0.3019 0.9888 0.1494 -633.4766 204.8906)" style="font-family:'TypoSlabserif-Light'; font-size:16.4678;">o</text>
			</g>
			<g class="st12">
				
					<text transform="matrix(0.5936 -0.3003 0.9834 0.1812 -629.623 202.4956)" style="font-family:'TypoSlabserif-Light'; font-size:15.8154;">d</text>
			</g>
			<g class="st12">
				
					<text transform="matrix(0.7102 -0.2981 0.9762 0.2169 -624.8652 200.084)" style="font-family:'TypoSlabserif-Light'; font-size:15.0487;">u</text>
			</g>
			<g class="st12">
				
					<text transform="matrix(0.8318 -0.2953 0.9672 0.254 -619.3359 197.769)" style="font-family:'TypoSlabserif-Light'; font-size:14.2411;">c</text>
			</g>
			<g class="st12">
				
					<text transform="matrix(0.959 -0.2919 0.9562 0.2928 -613.9961 195.8677)" style="font-family:'TypoSlabserif-Light'; font-size:13.4151;">e</text>
			</g>
			<g class="st12">
				
					<text transform="matrix(1.1113 -0.2872 0.9407 0.3393 -608.0527 194.0469)" style="font-family:'TypoSlabserif-Light'; font-size:12.4782;">d</text>
			</g>
			<g class="st12">
				
					<text transform="matrix(1.259 -0.2819 0.9232 0.3844 -600.9355 192.2285)" style="font-family:'TypoSlabserif-Light'; font-size:11.637;"> </text>
			</g>
			<g class="st12">
				
					<text transform="matrix(1.4272 -0.2748 0.9001 0.4358 -596.2646 191.1572)" style="font-family:'TypoSlabserif-Light'; font-size:10.7671;">b</text>
			</g>
			<g class="st12">
				
					<text transform="matrix(1.6569 -0.2634 0.8626 0.5059 -588.4307 189.6514)" style="font-family:'TypoSlabserif-Light'; font-size:9.7255;">y</text>
			</g>
			<g class="st12">
				
					<text transform="matrix(1.8724 -0.2505 0.8205 0.5717 -580.8418 188.457)" style="font-family:'TypoSlabserif-Light'; font-size:8.887;"> </text>
			</g>
			<g class="st12">
				
					<text transform="matrix(2.1459 -0.2307 0.7555 0.6552 -575.5493 187.7192)" style="font-family:'TypoSlabserif-Light'; font-size:7.9857;">B</text>
			</g>
			<g class="st12">
				
					<text transform="matrix(2.4221 -0.2055 0.6732 0.7395 -565.9692 186.7188)" style="font-family:'TypoSlabserif-Light'; font-size:7.2269;">i</text>
			</g>
			<g class="st12">
				
					<text transform="matrix(2.5932 -0.1865 0.6108 0.7918 -561.7637 186.3633)" style="font-family:'TypoSlabserif-Light'; font-size:6.8191;">l</text>
			</g>
			<g class="st12">
				
					<text transform="matrix(2.7571 -0.1648 0.5398 0.8418 -557.8208 186.0781)" style="font-family:'TypoSlabserif-Light'; font-size:6.4665;">l</text>
			</g>
			<g class="st12">
				
					<text transform="matrix(2.9149 -0.1392 0.456 0.89 -553.8301 185.8394)" style="font-family:'TypoSlabserif-Light'; font-size:6.1578;">,</text>
			</g>
			<g class="st12">
				
					<text transform="matrix(3.0844 -0.1027 0.3364 0.9417 -549.8125 185.6416)" style="font-family:'TypoSlabserif-Light'; font-size:5.8554;"> </text>
			</g>
			<g class="st12">
				
					<text transform="matrix(3.2706 -0.0162 0.0532 0.9986 -544.0483 185.3853)" style="font-family:'TypoSlabserif-Light'; font-size:5.554;">M</text>
			</g>
			<g class="st12">
				
					<text transform="matrix(3.1189 0.0932 -0.3052 0.9523 -528.8838 185.373)" style="font-family:'TypoSlabserif-Light'; font-size:5.7972;">a</text>
			</g>
			<g class="st12">
				
					<text transform="matrix(2.8768 0.1459 -0.478 0.8784 -520.377 185.6377)" style="font-family:'TypoSlabserif-Light'; font-size:6.2297;">r</text>
			</g>
			<g class="st12">
				
					<text transform="matrix(2.5899 0.1869 -0.6121 0.7908 -514.6069 185.9136)" style="font-family:'TypoSlabserif-Light'; font-size:6.8266;">y</text>
			</g>
			<g class="st12">
				
					<text transform="matrix(2.3014 0.2172 -0.7115 0.7027 -506.2651 186.5273)" style="font-family:'TypoSlabserif-Light'; font-size:7.5417;"> </text>
			</g>
			<g class="st12">
				
					<text transform="matrix(2.0356 0.2392 -0.7834 0.6215 -500.667 187.04)" style="font-family:'TypoSlabserif-Light'; font-size:8.3294;">a</text>
			</g>
			<g class="st12">
				
					<text transform="matrix(1.7475 0.2582 -0.8458 0.5336 -492.7217 187.9639)" style="font-family:'TypoSlabserif-Light'; font-size:9.3577;">n</text>
			</g>
			<g class="st12">
				
					<text transform="matrix(1.4934 0.2717 -0.89 0.456 -484.2891 189.2075)" style="font-family:'TypoSlabserif-Light'; font-size:10.4501;">d</text>
			</g>
			<g class="st12">
				
					<text transform="matrix(1.3176 0.2795 -0.9155 0.4023 -476.3647 190.668)" style="font-family:'TypoSlabserif-Light'; font-size:11.3234;"> </text>
			</g>
			<g class="st12">
				
					<text transform="matrix(1.1075 0.2873 -0.9411 0.3382 -471.4805 191.6143)" style="font-family:'TypoSlabserif-Light'; font-size:12.5001;">M</text>
			</g>
			<g class="st12">
				
					<text transform="matrix(0.9086 0.2933 -0.9607 0.2774 -460.0054 194.6572)" style="font-family:'TypoSlabserif-Light'; font-size:13.7386;">a</text>
			</g>
			<g class="st12">
				
					<text transform="matrix(0.815 0.2957 -0.9685 0.2488 -454.1523 196.5732)" style="font-family:'TypoSlabserif-Light'; font-size:14.3526;">l</text>
			</g>
			<g class="st12">
				
					<text transform="matrix(0.7579 0.297 -0.9729 0.2314 -451.5259 197.5264)" style="font-family:'TypoSlabserif-Light'; font-size:14.7314;">l</text>
			</g>
			<g class="st12">
				
					<text transform="matrix(0.6751 0.2988 -0.9785 0.2061 -448.9917 198.4844)" style="font-family:'TypoSlabserif-Light'; font-size:15.2821;">e</text>
			</g>
			<g class="st12">
				
					<text transform="matrix(0.5902 0.3003 -0.9836 0.1802 -444.2212 200.6196)" style="font-family:'TypoSlabserif-Light'; font-size:15.8373;">t</text>
			</g>
			<g class="st12">
				
					<text transform="matrix(0.5282 0.3013 -0.9869 0.1613 -441.5039 202.001)" style="font-family:'TypoSlabserif-Light'; font-size:16.2303;">t</text>
			</g>
			<g class="st12">
				
					<text transform="matrix(0.4656 0.3022 -0.9898 0.1422 -439.0288 203.4058)" style="font-family:'TypoSlabserif-Light'; font-size:16.6081;"> </text>
			</g>
			<g class="st12">
				
					<text transform="matrix(0.3931 0.3031 -0.9928 0.12 -436.4976 205.0234)" style="font-family:'TypoSlabserif-Light'; font-size:17.0146;">s</text>
			</g>
			<g class="st12">
				
					<text transform="matrix(0.3086 0.304 -0.9956 0.0942 -433.7051 207.1504)" style="font-family:'TypoSlabserif-Light'; font-size:17.4303;">o</text>
			</g>
			<g class="st12">
				
					<text transform="matrix(0.219 0.3046 -0.9978 0.0669 -431.1006 209.689)" style="font-family:'TypoSlabserif-Light'; font-size:17.7849;">n</text>
			</g>
			<g class="st12">
				
					<text transform="matrix(0.1378 0.305 -0.9991 0.0421 -429.1152 212.4902)" style="font-family:'TypoSlabserif-Light'; font-size:18.0129;">s</text>
			</g>
			<g class="st12">
				
					<text transform="matrix(1.9702 0.2439 -0.7988 0.6016 -585.0693 252.3096)" style="font-family:'TypoSlabserif-Light'; font-size:8.1878;">7</text>
			</g>
			<g class="st12">
				
					<text transform="matrix(2.2737 0.2198 -0.7198 0.6942 -576.1953 253.3984)" style="font-family:'TypoSlabserif-Light'; font-size:7.2989;">1</text>
			</g>
			<g class="st12">
				
					<text transform="matrix(2.6091 0.1846 -0.6045 0.7966 -567.0322 254.272)" style="font-family:'TypoSlabserif-Light'; font-size:6.4996;">2</text>
			</g>
			<g class="st12">
				
					<text transform="matrix(2.853 0.15 -0.4911 0.8711 -557.9502 254.8877)" style="font-family:'TypoSlabserif-Light'; font-size:6.0129;">.</text>
			</g>
			<g class="st12">
				
					<text transform="matrix(3.0699 0.1064 -0.3485 0.9373 -553.3345 255.145)" style="font-family:'TypoSlabserif-Light'; font-size:5.6342;">6</text>
			</g>
			<g class="st12">
				
					<text transform="matrix(3.2532 0.0354 -0.1159 0.9933 -543.8467 255.4648)" style="font-family:'TypoSlabserif-Light'; font-size:5.3475;">3</text>
			</g>
			<g class="st12">
				
					<text transform="matrix(3.2453 -0.0412 0.1349 0.9909 -534.2573 255.5576)" style="font-family:'TypoSlabserif-Light'; font-size:5.3592;">5</text>
			</g>
			<g class="st12">
				
					<text transform="matrix(3.1175 -0.0936 0.3066 0.9518 -524.9692 255.4141)" style="font-family:'TypoSlabserif-Light'; font-size:5.557;">.</text>
			</g>
			<g class="st12">
				
					<text transform="matrix(2.9135 -0.1395 0.4568 0.8895 -520.272 255.2881)" style="font-family:'TypoSlabserif-Light'; font-size:5.9026;">3</text>
			</g>
			<g class="st12">
				
					<text transform="matrix(2.5821 -0.1878 0.6152 0.7884 -510.8423 254.8267)" style="font-family:'TypoSlabserif-Light'; font-size:6.558;">5</text>
			</g>
			<g class="st12">
				
					<text transform="matrix(2.2485 -0.222 0.7271 0.6865 -501.5166 254.1372)" style="font-family:'TypoSlabserif-Light'; font-size:7.3663;">9</text>
			</g>
			<g class="st12">
				
					<text transform="matrix(1.9469 -0.2455 0.8042 0.5944 -492.3911 253.2246)" style="font-family:'TypoSlabserif-Light'; font-size:8.2641;">5</text>
			</g>
		</g>
	</g>
</g>
<g id="Layer_3">
	<g id="XMLID_4_">
		<g>
			<path class="st6" d="M174.199,492.484c-98.159,0-170.27-28.65-170.27-64s72.11-64,170.27-64c98.15,0,170.73,29.1,170.73,64.45
				C344.93,464.284,272.35,492.484,174.199,492.484z"/>
			<path class="st6" d="M3.93,428.484v-160.58c21.97,26.37,89.89,45.58,170.27,45.58c80.961,0,149.29-19.49,170.73-46.16v161.61
				c0-35.35-72.58-64.45-170.73-64.45C76.04,364.484,3.93,393.134,3.93,428.484z"/>
		</g>
		<g>
		</g>
	</g>
	<g>
		<g>
			<defs>
				<rect id="SVGID_5_" x="30.7" y="289.522" width="296.469" height="219.941"/>
			</defs>
			<clipPath id="SVGID_6_">
				<use xlink:href="#SVGID_5_"  style="overflow:visible;"/>
			</clipPath>
			<g class="st13">
				<defs>
					<rect id="SVGID_7_" x="30.7" y="289.522" width="296.469" height="219.941"/>
				</defs>
				<clipPath id="SVGID_8_">
					<use xlink:href="#SVGID_7_"  style="overflow:visible;"/>
				</clipPath>
				<path class="st24" d="M200.883,403.585c-0.108,0.087-0.216,0.175-0.322,0.263c-2.543-2.424-7.906-7.995-16.992-19.454
					c-9.377-11.828-13.496-18.292-15.141-21.146c0.099-0.075,0.194-0.152,0.295-0.226L200.883,403.585z"/>
				<path class="st24" d="M200.883,403.585l-32.16-40.562c4.34-3.349,8.203-6.164,11.459-8.449
					c1.799,3.055,5.961,9.453,14.883,20.705c8.691,10.962,13.978,16.536,16.645,19.121
					C208.796,396.993,205.2,400.077,200.883,403.585"/>
				<path class="st24" d="M195.345,408.003c-3.985,3.121-7.544,5.779-10.63,8.006l-31.765-40.063
					c2.923-2.551,6.347-5.438,10.244-8.569c1.639,2.846,5.754,9.312,15.148,21.16C187.441,400.013,192.806,405.584,195.345,408.003"
					/>
				<path class="st24" d="M152.95,375.947l31.765,40.063c-0.126,0.091-0.252,0.181-0.376,0.27
					c-2.634-2.541-7.942-8.116-16.745-19.218c-9.054-11.418-13.204-17.836-14.961-20.836
					C152.738,376.133,152.845,376.041,152.95,375.947"/>
				<path class="st24" d="M215.739,390.734c-0.127,0.117-0.255,0.235-0.385,0.358c-2.738-2.679-7.967-8.244-16.409-18.891
					c-8.65-10.91-12.824-17.257-14.713-20.416c0.138-0.092,0.274-0.184,0.407-0.274L215.739,390.734z"/>
				<path class="st24" d="M179.146,419.927c-5.467,3.734-8.429,5.416-8.429,5.416s-6.762-3.919-17.219-17.107
					c-10.455-13.188-12.849-20.814-12.849-20.814s2.493-2.606,7.249-6.961c1.859,3.128,6.031,9.491,14.768,20.507
					C171.182,411.707,176.428,417.275,179.146,419.927"/>
				<path class="st24" d="M215.739,390.734l-31.1-39.223c4.313-2.895,6.772-4.338,6.772-4.338s7.583,6.15,16.754,17.718
					c9.173,11.568,13.313,20.204,13.313,20.204S219.642,387.094,215.739,390.734"/>
			</g>
			<g class="st13">
				<defs>
					<rect id="SVGID_9_" x="30.7" y="289.522" width="296.469" height="219.941"/>
				</defs>
				<clipPath id="SVGID_10_">
					<use xlink:href="#SVGID_9_"  style="overflow:visible;"/>
				</clipPath>
				<path class="st5" d="M150.264,403.993l-25.187,19.97c0.549,1.206,1.135,2.388,1.76,3.547c1.053,1.957,2.216,3.848,3.482,5.671
					l26.456-20.977L150.264,403.993z"/>
				<path class="st3" d="M178.935,335.294c-35.456,0-64.199,28.743-64.199,64.199c0,8.3,1.578,16.231,4.446,23.513
					c0.56,1.42,1.17,2.815,1.825,4.185c0.57,1.188,1.173,2.357,1.812,3.504c1.082,1.941,2.262,3.821,3.531,5.632
					c0.297,0.423,0.597,0.844,0.903,1.259c1.646,2.227,3.43,4.345,5.342,6.339c11.685,12.183,28.126,19.768,46.339,19.768
					c35.456,0,64.199-28.743,64.199-64.199S214.391,335.294,178.935,335.294 M220.754,441.312c-5.434,5.433-11.76,9.698-18.8,12.676
					c-7.289,3.083-15.033,4.645-23.02,4.645s-15.73-1.562-23.02-4.645c-7.04-2.978-13.366-7.243-18.799-12.676
					c-0.181-0.181-0.357-0.365-0.536-0.547c-1.942-1.994-3.733-4.104-5.362-6.322c-0.305-0.416-0.604-0.837-0.898-1.262
					c-1.267-1.823-2.43-3.714-3.482-5.671c-0.625-1.16-1.211-2.343-1.76-3.547c-0.217-0.48-0.433-0.963-0.639-1.451
					c-0.392-0.926-0.759-1.86-1.101-2.801c-2.353-6.46-3.544-13.247-3.544-20.217c0-7.986,1.563-15.73,4.645-23.019
					c2.979-7.042,7.245-13.367,12.678-18.801c5.433-5.433,11.759-9.697,18.799-12.677c7.289-3.082,15.033-4.645,23.02-4.645
					s15.73,1.563,23.02,4.645c7.04,2.979,13.366,7.244,18.8,12.677c5.432,5.434,9.698,11.759,12.677,18.801
					c3.082,7.288,4.646,15.033,4.646,23.019c0,7.986-1.564,15.731-4.646,23.019C230.452,429.554,226.186,435.88,220.754,441.312"/>
				<path class="st4" d="M115.287,444.31c-0.979-2.334-14.839-3.917-14.839-3.917l5.875,9.416l-5.875,6.528
					c0,0,3.314-0.05,12.806,3.264c9.489,3.313,14.01,4.669,18.98,5.423c0.565-2.636,0.903-4.323,0.903-4.323
					S116.267,446.645,115.287,444.31"/>
				<path class="st4" d="M243.636,444.009c0.979-2.335,14.838-3.917,14.838-3.917l-5.875,9.416l5.875,6.527
					c0,0-3.314-0.05-12.805,3.264s-14.011,4.67-18.98,5.423c-0.565-2.636-0.904-4.323-0.904-4.323S242.656,446.344,243.636,444.009"
					/>
				<path class="st20" d="M245.669,455.231c0,0-14.292,8.437-66.425,8.437c-52.132,0-67.045-8.437-67.045-8.437v-22.596
					c0,0,26.883,7.391,66.735,7.391s66.734-7.391,66.734-7.391V455.231z"/>
				<path class="st15" d="M132.445,452.409c-0.327-1.243-0.65-2.488-0.968-3.732c-0.229,1.685-0.456,3.371-0.685,5.057
					c-0.794-0.108-1.586-0.218-2.378-0.331c0.502-3.535,1.006-7.069,1.508-10.604c0.838,0.12,1.676,0.236,2.513,0.349
					c0.465,1.748,0.94,3.495,1.426,5.241c0.906-1.567,1.803-3.138,2.69-4.712c0.839,0.103,1.678,0.202,2.518,0.299
					c-0.408,3.547-0.816,7.093-1.225,10.64c-0.795-0.092-1.59-0.186-2.384-0.283c0.207-1.688,0.413-3.376,0.617-5.064
					c-0.632,1.122-1.27,2.243-1.91,3.363C133.593,452.559,133.02,452.485,132.445,452.409"/>
				<path class="st15" d="M141.903,453.521c-0.166,0.495-0.33,0.99-0.496,1.486c-0.789-0.083-1.576-0.167-2.362-0.255
					c1.183-3.46,2.343-6.925,3.479-10.396c1.018,0.107,2.037,0.21,3.057,0.307c0.422,3.627,0.871,7.253,1.343,10.88
					c-0.788-0.07-1.576-0.144-2.365-0.219c-0.064-0.518-0.128-1.037-0.191-1.555C143.545,453.689,142.723,453.606,141.903,453.521
					 M144.088,451.436c-0.133-1.123-0.265-2.245-0.393-3.368c-0.352,1.074-0.702,2.148-1.057,3.222
					C143.122,451.34,143.604,451.388,144.088,451.436"/>
				<path class="st15" d="M151.333,445.166c-0.221,2.795-0.441,5.592-0.662,8.388c1.568,0.124,3.136,0.238,4.705,0.34
					c-0.052,0.764-0.1,1.526-0.15,2.29c-2.367-0.155-4.735-0.333-7.103-0.537c0.306-3.557,0.61-7.114,0.914-10.671
					C149.803,445.043,150.567,445.105,151.333,445.166"/>
				<path class="st15" d="M159.773,445.727c-0.152,2.801-0.304,5.603-0.456,8.403c1.57,0.085,3.14,0.16,4.711,0.225
					c-0.033,0.765-0.063,1.528-0.095,2.292c-2.371-0.097-4.741-0.217-7.11-0.361c0.218-3.563,0.436-7.127,0.651-10.69
					C158.242,445.642,159.008,445.686,159.773,445.727"/>
				<path class="st15" d="M172.823,446.188c-0.013,0.765-0.025,1.53-0.038,2.294c-1.544-0.025-3.088-0.061-4.632-0.106
					c-0.018,0.638-0.038,1.274-0.056,1.912c1.294,0.038,2.588,0.069,3.881,0.093c-0.015,0.765-0.028,1.53-0.043,2.295
					c-1.302-0.024-2.604-0.055-3.906-0.095c-0.018,0.638-0.038,1.275-0.056,1.913c1.57,0.047,3.141,0.083,4.713,0.108
					c-0.013,0.765-0.025,1.53-0.038,2.294c-2.372-0.038-4.743-0.101-7.115-0.187c0.13-3.568,0.26-7.136,0.389-10.703
					C168.222,446.09,170.522,446.15,172.823,446.188"/>
				<path class="st15" d="M174.375,446.208c2.301,0.028,4.602,0.032,6.901,0.013c0.006,0.765,0.014,1.53,0.02,2.294
					c-0.772,0.006-1.544,0.01-2.316,0.012c0.006,2.804,0.01,5.609,0.014,8.415c-0.791,0.001-1.582,0-2.371-0.004
					c0.013-2.805,0.027-5.61,0.041-8.415c-0.771-0.004-1.544-0.011-2.315-0.02C174.357,447.738,174.366,446.974,174.375,446.208"/>
				<path class="st15" d="M182.828,446.204c2.301-0.03,4.602-0.082,6.902-0.158c0.024,0.764,0.05,1.529,0.076,2.293
					c-0.774,0.026-1.544,0.048-2.317,0.068c0.074,2.804,0.147,5.608,0.221,8.412c-0.791,0.021-1.581,0.039-2.37,0.054
					c-0.055-2.804-0.11-5.608-0.165-8.413c-0.772,0.015-1.544,0.028-2.316,0.037C182.849,447.734,182.838,446.969,182.828,446.204"
					/>
				<path class="st15" d="M201.418,450.323c0.4,0.475,0.63,1.139,0.689,1.994c0.017,0.254,0.033,0.509,0.052,0.763
					c0.139,2.034-0.846,3.128-2.953,3.252c-1.316,0.078-2.633,0.147-3.949,0.209c-0.169-3.565-0.339-7.132-0.509-10.698
					c1.227-0.058,2.452-0.123,3.678-0.194c2.04-0.12,3.13,0.825,3.268,2.861C201.743,449.239,201.652,449.843,201.418,450.323
					 M197.171,448.02c0.028,0.509,0.055,1.018,0.083,1.527c0.464-0.025,0.93-0.051,1.395-0.079c0.516-0.03,0.759-0.301,0.728-0.809
					c-0.031-0.509-0.303-0.748-0.817-0.718C198.097,447.968,197.633,447.994,197.171,448.02 M197.378,451.838
					c0.042,0.764,0.083,1.528,0.125,2.292c0.523-0.028,1.046-0.058,1.569-0.088s0.769-0.301,0.738-0.811
					c-0.016-0.254-0.032-0.509-0.047-0.764c-0.032-0.509-0.308-0.748-0.826-0.717C198.418,451.781,197.897,451.811,197.378,451.838"
					/>
				<path class="st15" d="M210.076,444.772c0.069,0.762,0.141,1.523,0.211,2.285c-1.538,0.143-3.078,0.274-4.619,0.396l0.15,1.907
					c1.29-0.103,2.581-0.211,3.871-0.328l0.206,2.286c-1.299,0.117-2.599,0.227-3.896,0.33c0.05,0.635,0.1,1.271,0.15,1.906
					c1.568-0.123,3.135-0.257,4.7-0.402c0.071,0.762,0.142,1.523,0.211,2.286c-2.363,0.218-4.731,0.413-7.099,0.583
					c-0.256-3.56-0.514-7.122-0.771-10.682C205.487,445.173,207.781,444.984,210.076,444.772"/>
				<path class="st15" d="M218.495,443.89c0.09,0.76,0.178,1.519,0.268,2.279c-1.537,0.181-3.072,0.35-4.611,0.51
					c0.066,0.634,0.132,1.268,0.197,1.902c1.289-0.133,2.578-0.275,3.865-0.423l0.261,2.281c-1.295,0.148-2.592,0.29-3.889,0.425
					c0.065,0.634,0.131,1.268,0.197,1.902c1.564-0.162,3.129-0.334,4.692-0.518c0.089,0.76,0.178,1.52,0.268,2.279
					c-2.36,0.277-4.723,0.53-7.087,0.759c-0.345-3.554-0.688-7.106-1.034-10.661C213.915,444.404,216.206,444.159,218.495,443.89"/>
				<path class="st15" d="M220.918,450.919c0.78-0.096,1.559-0.192,2.336-0.292c0.017,0.126,0.033,0.253,0.049,0.379
					c0.065,0.506,0.358,0.726,0.879,0.657c0.26-0.034,0.52-0.068,0.781-0.103c0.519-0.069,0.745-0.358,0.677-0.863
					c-0.018-0.126-0.034-0.253-0.051-0.379c-0.069-0.505-0.361-0.723-0.879-0.654c-0.26,0.034-0.518,0.068-0.776,0.103
					c-2.073,0.271-3.233-0.621-3.478-2.645c-0.015-0.126-0.031-0.252-0.047-0.38c-0.244-2.025,0.648-3.157,2.681-3.422
					c0.253-0.034,0.507-0.067,0.761-0.102c2.029-0.271,3.188,0.59,3.477,2.61l0.055,0.379c-0.769,0.109-1.537,0.216-2.307,0.32
					c-0.019-0.127-0.035-0.253-0.052-0.379c-0.068-0.505-0.358-0.723-0.869-0.655c-0.257,0.034-0.511,0.068-0.768,0.102
					c-0.512,0.067-0.734,0.353-0.67,0.857c0.018,0.127,0.033,0.253,0.049,0.379c0.065,0.506,0.355,0.727,0.869,0.659
					c0.258-0.034,0.516-0.068,0.771-0.102c2.056-0.275,3.226,0.584,3.515,2.604l0.055,0.379c0.29,2.018-0.612,3.182-2.71,3.461
					c-0.262,0.036-0.522,0.07-0.785,0.104c-2.099,0.273-3.271-0.616-3.515-2.64C220.95,451.172,220.934,451.046,220.918,450.919"/>
			</g>
			<g class="st13">
				<defs>
					<rect id="SVGID_11_" x="30.7" y="289.522" width="296.469" height="219.941"/>
				</defs>
				<clipPath id="SVGID_12_">
					<use xlink:href="#SVGID_11_"  style="overflow:visible;"/>
				</clipPath>
				<path class="st9" d="M190.946,411.253c-4.477,5.048-6.574,12.861-2.953,20.101c1.81,3.716-4.763,9.241-5.621,1.715
					c-0.857-7.526-2.667-13.624-7.146-10.574c-5.906-3.525-11.176-19.718-10.217-18.53c4.311,5.335,15.981,9.003,11.789,4.287
					c-4.049-5.24,5.812-3.906,8.812-1.429C188.612,409.3,190.946,411.253,190.946,411.253"/>
			</g>
		</g>
	</g>
	<g id="XMLID_5_">
		<g>
			<path class="st6" d="M972.201,454.388c-124.076,0-215.225-36.214-215.225-80.91c0-44.683,91.148-80.885,215.225-80.885
				c124.063,0,215.807,36.758,215.807,81.454S1096.265,454.388,972.201,454.388z"/>
			<path class="st6" d="M756.977,170.502c27.771,33.332,113.623,57.614,215.225,57.614c102.335,0,188.706-24.636,215.807-58.347
				v204.278c0-44.696-91.743-81.454-215.807-81.454c-124.076,0-215.225,36.202-215.225,80.885V170.502z"/>
		</g>
		<g>
		</g>
	</g>
	<g>
		<g>
			<defs>
				<rect id="SVGID_13_" x="790.814" y="197.828" width="374.742" height="278.011"/>
			</defs>
			<clipPath id="SVGID_14_">
				<use xlink:href="#SVGID_13_"  style="overflow:visible;"/>
			</clipPath>
			<g class="st26">
				<defs>
					<rect id="SVGID_15_" x="790.814" y="197.828" width="374.742" height="278.011"/>
				</defs>
				<clipPath id="SVGID_16_">
					<use xlink:href="#SVGID_15_"  style="overflow:visible;"/>
				</clipPath>
				<path class="st19" d="M1005.929,342.006c-0.137,0.111-0.272,0.222-0.407,0.333c-3.214-3.064-9.994-10.106-21.479-24.59
					c-11.853-14.95-17.06-23.121-19.139-26.728c0.125-0.095,0.246-0.192,0.374-0.286L1005.929,342.006z"/>
				<path class="st19" d="M1005.929,342.006l-40.65-51.271c5.485-4.233,10.368-7.792,14.483-10.68
					c2.274,3.861,7.535,11.948,18.812,26.172c10.985,13.856,17.668,20.901,21.039,24.169
					C1015.931,333.673,1011.386,337.571,1005.929,342.006"/>
				<path class="st19" d="M998.929,347.59c-5.038,3.945-9.535,7.305-13.437,10.12l-40.151-50.64
					c3.694-3.225,8.022-6.874,12.949-10.832c2.071,3.597,7.272,11.771,19.148,26.747C988.939,337.49,995.719,344.532,998.929,347.59
					"/>
				<path class="st19" d="M945.341,307.07l40.151,50.64c-0.159,0.115-0.318,0.229-0.476,0.341
					c-3.329-3.211-10.039-10.259-21.166-24.292c-11.443-14.433-16.69-22.545-18.911-26.337
					C945.073,307.305,945.208,307.189,945.341,307.07"/>
				<path class="st19" d="M1024.708,325.762c-0.16,0.147-0.322,0.296-0.486,0.452c-3.462-3.387-10.07-10.421-20.742-23.878
					c-10.934-13.791-16.21-21.813-18.597-25.806c0.174-0.116,0.347-0.231,0.515-0.347L1024.708,325.762z"/>
				<path class="st19" d="M978.454,362.662c-6.911,4.721-10.654,6.846-10.654,6.846s-8.548-4.955-21.765-21.624
					c-13.216-16.669-16.242-26.31-16.242-26.31s3.152-3.294,9.164-8.799c2.35,3.955,7.623,11.997,18.666,25.921
					C968.386,352.272,975.017,359.311,978.454,362.662"/>
				<path class="st19" d="M1024.708,325.762l-39.311-49.579c5.452-3.659,8.56-5.484,8.56-5.484s9.586,7.774,21.178,22.396
					c11.595,14.622,16.829,25.539,16.829,25.539S1029.641,321.161,1024.708,325.762"/>
			</g>
			<g class="st26">
				<defs>
					<rect id="SVGID_17_" x="790.814" y="197.828" width="374.742" height="278.011"/>
				</defs>
				<clipPath id="SVGID_18_">
					<use xlink:href="#SVGID_17_"  style="overflow:visible;"/>
				</clipPath>
				<path class="st23" d="M941.945,342.521l-31.836,25.242c0.693,1.524,1.434,3.018,2.225,4.484c1.33,2.474,2.8,4.864,4.4,7.169
					l33.441-26.516L941.945,342.521z"/>
				<path class="st21" d="M978.187,255.684c-44.818,0-81.149,36.332-81.149,81.149c0,10.492,1.994,20.517,5.619,29.721
					c0.708,1.795,1.479,3.559,2.308,5.289c0.721,1.502,1.482,2.979,2.291,4.429c1.368,2.455,2.859,4.83,4.464,7.12
					c0.375,0.535,0.754,1.066,1.142,1.59c2.08,2.816,4.335,5.493,6.753,8.013c14.769,15.399,35.551,24.986,58.573,24.986
					c44.816,0,81.148-36.331,81.148-81.149S1023.003,255.684,978.187,255.684 M1031.046,389.694
					c-6.868,6.867-14.864,12.258-23.763,16.022c-9.214,3.896-19.003,5.871-29.097,5.871c-10.096,0-19.884-1.975-29.098-5.871
					c-8.899-3.765-16.896-9.155-23.763-16.022c-0.228-0.229-0.451-0.461-0.678-0.692c-2.455-2.52-4.719-5.187-6.778-7.991
					c-0.385-0.526-0.763-1.059-1.136-1.595c-1.601-2.305-3.07-4.695-4.4-7.169c-0.791-1.466-1.531-2.962-2.225-4.483
					c-0.275-0.607-0.548-1.218-0.808-1.834c-0.495-1.171-0.959-2.351-1.392-3.541c-2.974-8.166-4.479-16.744-4.479-25.555
					c0-10.094,1.977-19.884,5.871-29.096c3.765-8.901,9.158-16.896,16.024-23.765c6.867-6.867,14.863-12.257,23.763-16.023
					c9.214-3.896,19.002-5.872,29.098-5.872c10.094,0,19.883,1.976,29.097,5.872c8.898,3.766,16.895,9.156,23.763,16.023
					c6.866,6.868,12.259,14.864,16.024,23.765c3.896,9.212,5.873,19.002,5.873,29.096c0,10.095-1.978,19.884-5.873,29.096
					C1043.305,374.832,1037.912,382.827,1031.046,389.694"/>
				<path class="st22" d="M897.734,393.482c-1.238-2.95-18.757-4.951-18.757-4.951l7.427,11.901l-7.427,8.252
					c0,0,4.189-0.063,16.187,4.126c11.995,4.188,17.708,5.901,23.991,6.854c0.716-3.332,1.143-5.464,1.143-5.464
					S898.972,396.435,897.734,393.482"/>
				<path class="st22" d="M1059.97,393.103c1.237-2.951,18.755-4.951,18.755-4.951l-7.426,11.901l7.426,8.251
					c0,0-4.189-0.063-16.185,4.126c-11.997,4.189-17.711,5.902-23.992,6.855c-0.715-3.333-1.144-5.465-1.144-5.465
					S1058.731,396.054,1059.97,393.103"/>
				<path class="st8" d="M1062.54,407.287c0,0-18.065,10.664-83.963,10.664c-65.896,0-84.746-10.664-84.746-10.664v-28.562
					c0,0,33.979,9.343,84.355,9.343c50.373,0,84.354-9.343,84.354-9.343V407.287z"/>
				<path class="st1" d="M919.422,403.721c-0.413-1.571-0.822-3.146-1.223-4.718c-0.289,2.13-0.577,4.26-0.865,6.391
					c-1.004-0.136-2.005-0.275-3.006-0.417c0.635-4.468,1.271-8.936,1.906-13.403c1.059,0.151,2.117,0.299,3.176,0.441
					c0.588,2.208,1.189,4.417,1.802,6.624c1.146-1.98,2.279-3.966,3.401-5.956c1.061,0.131,2.12,0.256,3.182,0.379
					c-0.516,4.482-1.031,8.965-1.548,13.448c-1.004-0.115-2.009-0.234-3.013-0.357c0.262-2.134,0.522-4.268,0.78-6.401
					c-0.799,1.419-1.605,2.835-2.415,4.251C920.873,403.909,920.148,403.815,919.422,403.721"/>
				<path class="st1" d="M931.377,405.126c-0.209,0.626-0.417,1.252-0.626,1.879c-0.998-0.104-1.993-0.212-2.986-0.323
					c1.494-4.374,2.961-8.753,4.397-13.141c1.285,0.135,2.574,0.265,3.863,0.388c0.532,4.585,1.101,9.169,1.697,13.753
					c-0.997-0.09-1.992-0.182-2.99-0.277c-0.081-0.654-0.162-1.31-0.241-1.966C933.453,405.338,932.413,405.233,931.377,405.126
					 M934.139,402.489c-0.168-1.419-0.334-2.837-0.496-4.257c-0.444,1.357-0.888,2.716-1.336,4.073
					C932.918,402.368,933.527,402.43,934.139,402.489"/>
				<path class="st1" d="M943.297,394.564c-0.278,3.534-0.558,7.068-0.838,10.603c1.983,0.156,3.965,0.301,5.948,0.431
					c-0.065,0.965-0.126,1.929-0.189,2.895c-2.992-0.196-5.986-0.422-8.979-0.679c0.387-4.496,0.771-8.992,1.155-13.488
					C941.362,394.409,942.329,394.488,943.297,394.564"/>
				<path class="st1" d="M953.965,395.274c-0.192,3.541-0.383,7.082-0.575,10.621c1.985,0.107,3.968,0.202,5.955,0.283
					c-0.043,0.967-0.081,1.932-0.12,2.898c-2.997-0.122-5.994-0.275-8.987-0.457c0.274-4.504,0.55-9.009,0.823-13.513
					C952.03,395.167,952.998,395.222,953.965,395.274"/>
				<path class="st1" d="M970.461,395.855c-0.016,0.967-0.032,1.935-0.048,2.9c-1.951-0.032-3.903-0.076-5.855-0.134
					c-0.021,0.806-0.048,1.61-0.07,2.417c1.636,0.048,3.272,0.087,4.905,0.117c-0.019,0.967-0.035,1.934-0.054,2.9
					c-1.646-0.03-3.292-0.069-4.938-0.119c-0.022,0.806-0.048,1.61-0.07,2.417c1.984,0.06,3.97,0.104,5.957,0.137
					c-0.017,0.966-0.032,1.934-0.048,2.9c-2.998-0.048-5.996-0.128-8.994-0.236c0.164-4.51,0.328-9.02,0.492-13.528
					C964.645,395.732,967.553,395.809,970.461,395.855"/>
				<path class="st1" d="M972.422,395.883c2.909,0.034,5.816,0.04,8.725,0.016c0.007,0.967,0.017,1.934,0.024,2.9
					c-0.977,0.008-1.952,0.012-2.928,0.015c0.007,3.545,0.012,7.09,0.017,10.636c-1,0.002-1.999,0-2.997-0.005
					c0.016-3.545,0.034-7.091,0.052-10.636c-0.975-0.005-1.951-0.014-2.927-0.024C972.4,397.816,972.411,396.851,972.422,395.883"/>
				<path class="st1" d="M983.107,395.877c2.908-0.038,5.816-0.104,8.725-0.199c0.031,0.966,0.062,1.933,0.096,2.899
					c-0.979,0.032-1.951,0.061-2.929,0.086c0.094,3.544,0.187,7.089,0.279,10.633c-1,0.026-1.999,0.049-2.996,0.068
					c-0.069-3.544-0.14-7.089-0.209-10.634c-0.976,0.019-1.952,0.035-2.928,0.047C983.134,397.811,983.119,396.844,983.107,395.877"
					/>
				<path class="st1" d="M1006.605,401.084c0.506,0.6,0.797,1.439,0.871,2.52c0.021,0.322,0.042,0.644,0.065,0.965
					c0.176,2.571-1.068,3.953-3.732,4.111c-1.664,0.098-3.328,0.187-4.992,0.265c-0.213-4.507-0.429-9.015-0.644-13.522
					c1.551-0.072,3.101-0.154,4.649-0.246c2.579-0.15,3.956,1.044,4.13,3.616C1007.016,399.713,1006.901,400.477,1006.605,401.084
					 M1001.237,398.172c0.035,0.644,0.069,1.286,0.104,1.931c0.587-0.032,1.175-0.064,1.763-0.1c0.651-0.038,0.959-0.38,0.919-1.022
					c-0.039-0.644-0.382-0.945-1.032-0.908C1002.407,398.106,1001.821,398.14,1001.237,398.172 M1001.499,402.998
					c0.053,0.966,0.104,1.933,0.157,2.897c0.662-0.036,1.322-0.073,1.983-0.111c0.662-0.039,0.972-0.381,0.934-1.025
					c-0.02-0.321-0.04-0.643-0.059-0.965c-0.041-0.644-0.39-0.945-1.045-0.906C1002.813,402.926,1002.155,402.964,1001.499,402.998"
					/>
				<path class="st1" d="M1017.55,394.067c0.087,0.963,0.178,1.925,0.267,2.889c-1.944,0.18-3.892,0.347-5.839,0.5l0.189,2.41
					c1.631-0.129,3.264-0.266,4.894-0.414l0.26,2.89c-1.641,0.147-3.284,0.287-4.925,0.416c0.063,0.803,0.126,1.606,0.19,2.409
					c1.982-0.155,3.962-0.325,5.941-0.508c0.09,0.963,0.179,1.925,0.267,2.89c-2.988,0.274-5.981,0.521-8.974,0.736
					c-0.323-4.5-0.648-9.002-0.975-13.502C1011.749,394.574,1014.648,394.335,1017.55,394.067"/>
				<path class="st1" d="M1028.191,392.952c0.113,0.96,0.225,1.92,0.338,2.88c-1.942,0.229-3.884,0.443-5.829,0.646
					c0.085,0.801,0.167,1.603,0.25,2.404c1.63-0.169,3.259-0.348,4.885-0.534l0.33,2.882c-1.637,0.188-3.276,0.366-4.915,0.537
					c0.083,0.802,0.166,1.604,0.249,2.404c1.978-0.205,3.955-0.423,5.931-0.655c0.113,0.96,0.226,1.921,0.339,2.881
					c-2.983,0.351-5.969,0.671-8.958,0.96c-0.436-4.491-0.87-8.982-1.307-13.475
					C1022.401,393.602,1025.297,393.292,1028.191,392.952"/>
				<path class="st1" d="M1031.254,401.838c0.986-0.122,1.97-0.243,2.952-0.37c0.021,0.159,0.042,0.319,0.062,0.479
					c0.083,0.64,0.454,0.917,1.111,0.831c0.328-0.043,0.657-0.086,0.988-0.13c0.654-0.087,0.941-0.452,0.855-1.091
					c-0.022-0.16-0.044-0.32-0.064-0.479c-0.088-0.64-0.457-0.914-1.111-0.827c-0.328,0.043-0.654,0.086-0.981,0.129
					c-2.62,0.343-4.087-0.784-4.396-3.343c-0.019-0.16-0.04-0.319-0.06-0.479c-0.308-2.561,0.82-3.991,3.389-4.325
					c0.319-0.043,0.641-0.086,0.962-0.129c2.565-0.343,4.029,0.746,4.394,3.3l0.069,0.479c-0.971,0.138-1.942,0.272-2.915,0.404
					c-0.023-0.16-0.045-0.319-0.065-0.479c-0.087-0.638-0.453-0.913-1.099-0.827c-0.324,0.043-0.646,0.086-0.971,0.128
					c-0.646,0.085-0.928,0.446-0.847,1.084c0.022,0.162,0.042,0.32,0.062,0.48c0.083,0.64,0.449,0.918,1.099,0.833
					c0.326-0.043,0.652-0.086,0.975-0.129c2.599-0.349,4.077,0.738,4.442,3.291l0.069,0.479c0.366,2.551-0.774,4.022-3.426,4.376
					c-0.331,0.044-0.66,0.087-0.992,0.131c-2.653,0.347-4.135-0.778-4.443-3.336
					C1031.295,402.156,1031.273,401.997,1031.254,401.838"/>
			</g>
			<g class="st26">
				<defs>
					<rect id="SVGID_19_" x="790.814" y="197.828" width="374.742" height="278.011"/>
				</defs>
				<clipPath id="SVGID_20_">
					<use xlink:href="#SVGID_19_"  style="overflow:visible;"/>
				</clipPath>
				<path class="st0" d="M993.369,351.698c-5.658,6.381-8.311,16.257-3.732,25.408c2.287,4.697-6.021,11.681-7.105,2.168
					c-1.084-9.513-3.371-17.221-9.032-13.367c-7.466-4.456-14.127-24.923-12.914-23.422c5.448,6.744,20.2,11.38,14.901,5.419
					c-5.118-6.624,7.346-4.937,11.14-1.807C990.418,349.229,993.369,351.698,993.369,351.698"/>
			</g>
		</g>
	</g>
</g>
</svg>
