<?xml version="1.0" encoding="utf-8"?>
<!-- Generator: Adobe Illustrator 16.0.0, SVG Export Plug-In . SVG Version: 6.00 Build 0)  -->
<!DOCTYPE svg PUBLIC "-//W3C//DTD SVG 1.1//EN" "http://www.w3.org/Graphics/SVG/1.1/DTD/svg11.dtd">
<svg version="1.1" xmlns="http://www.w3.org/2000/svg" xmlns:xlink="http://www.w3.org/1999/xlink" x="0px" y="0px"
	 width="349.482px" height="436.479px" viewBox="0 0 349.482 436.479" style="enable-background:new 0 0 349.482 436.479;"
	 xml:space="preserve">
<style type="text/css">
<![CDATA[
	.st0{font-size:6.0129;}
	.st1{font-size:6.1578;}
	.st2{font-size:6.2297;}
	.st3{font-size:6.4665;}
	.st4{font-size:6.4996;}
	.st5{font-size:6.8191;}
	.st6{font-size:6.8266;}
	.st7{font-size:10.4501;}
	.st8{font-size:10.7671;}
	.st9{clip-path:url(#SVGID_20_);fill:#EACD50;}
	.st10{clip-path:url(#SVGID_18_);fill:#FFFFFF;}
	.st11{clip-path:url(#SVGID_4_);fill:#D1B74A;}
	.st12{clip-path:url(#SVGID_10_);fill:#848484;}
	.st13{clip-path:url(#SVGID_10_);fill:#B59E40;}
	.st14{clip-path:url(#SVGID_10_);fill:#EACD50;}
	.st15{fill:#E8E8E8;}
	.st16{font-size:17.0146;}
	.st17{font-family:'TypoSlabserif-Light';}
	.st18{font-size:17.3352;}
	.st19{font-size:17.4303;}
	.st20{font-size:17.7849;}
	.st21{fill:#EACD4F;}
	.st22{font-size:14.2411;}
	.st23{font-size:14.3526;}
	.st24{font-size:14.7314;}
	.st25{clip-path:url(#SVGID_18_);fill:#D1B74A;}
	.st26{clip-path:url(#SVGID_12_);fill:#EACD50;}
	.st27{clip-path:url(#SVGID_4_);fill:none;stroke:#898989;stroke-miterlimit:10;}
	.st28{font-size:7.2269;}
	.st29{font-size:7.2989;}
	.st30{font-size:7.3663;}
	.st31{font-size:7.5417;}
	.st32{font-size:7.9857;}
	.st33{font-size:11.3234;}
	.st34{font-size:16.93;}
	.st35{fill:#F4F4F4;}
	.st36{font-size:5.554;}
	.st37{font-size:5.557;}
	.st38{font-size:6.558;}
	.st39{font-size:8.887;}
	.st40{font-size:18.0129;}
	.st41{clip-path:url(#SVGID_2_);}
	.st42{clip-path:url(#SVGID_6_);}
	.st43{fill:#919191;}
	.st44{clip-path:url(#SVGID_10_);fill:#FFFFFF;}
	.st45{clip-path:url(#SVGID_4_);fill:#848484;}
	.st46{clip-path:url(#SVGID_4_);fill:#B59E40;}
	.st47{clip-path:url(#SVGID_4_);fill:#EACD50;}
	.st48{font-size:15.0487;}
	.st49{font-size:15.2821;}
	.st50{font-size:15.8154;}
	.st51{font-size:15.8373;}
	.st52{font-size:11.637;}
	.st53{clip-path:url(#SVGID_16_);fill:#EACD50;}
	.st54{font-size:8.1878;}
	.st55{font-size:8.2641;}
	.st56{font-size:8.3294;}
	.st57{font-size:12.4782;}
	.st58{font-size:12.5001;}
	.st59{clip-path:url(#SVGID_10_);fill:#D1B74A;}
	.st60{clip-path:url(#SVGID_18_);fill:#848484;}
	.st61{clip-path:url(#SVGID_18_);fill:#B59E40;}
	.st62{clip-path:url(#SVGID_18_);fill:#EACD50;}
	.st63{font-size:5.3475;}
	.st64{font-size:5.3592;}
	.st65{font-size:5.6342;}
	.st66{font-size:5.7972;}
	.st67{font-size:5.8554;}
	.st68{font-size:5.9026;}
	.st69{clip-path:url(#SVGID_8_);fill:#EACD50;}
	.st70{font-size:16.2303;}
	.st71{font-size:16.4678;}
	.st72{font-size:16.6081;}
	.st73{clip-path:url(#SVGID_4_);fill:#FFFFFF;}
	.st74{clip-path:url(#SVGID_14_);}
	.st75{fill:#A8A8A8;}
	.st76{font-size:9.3577;}
	.st77{font-size:9.7255;}
	.st78{font-size:13.4151;}
	.st79{font-size:13.7386;}
]]>
</style>
<g id="Layer_1">
</g>
<g id="Layer_2">
</g>
<g id="Layer_4">
	<g id="XMLID_1_">
		<g>
			<path class="st21" d="M345.896,220.395v134l-0.28,0.04c-5.109-38.87-79.14-69.71-169.72-69.71s-165.54,30.84-170.71,69.71
				l-0.29-0.04v-134c0-0.11,0-0.22,0-0.33c0-39.34,26-44.67,26-44.67v-39.31c27.06,17.41,81.84,29.31,145,29.31
				c62.4,0,116.6-11.62,144-28.68v38.68c0,0,26,5.33,26,44.67C345.896,220.174,345.896,220.285,345.896,220.395z"/>
			<path class="st21" d="M345.615,354.435c0.19,1.42,0.28,2.85,0.28,4.29c0,40.87-76.11,74-170,74s-171-33.13-171-74
				c0-1.44,0.1-2.87,0.29-4.29c5.17-38.87,80.13-69.71,170.71-69.71S340.506,315.564,345.615,354.435z"/>
			<path class="st43" d="M338.896,57.395v54c0-9.83-7.93-19.05-21.8-27C330.966,76.444,338.896,67.225,338.896,57.395z"/>
			<path class="st43" d="M319.896,136.714c-27.4,17.06-81.6,28.68-144,28.68c-63.16,0-117.94-11.9-145-29.31
				c-11.51-7.4-18-15.79-18-24.69c0-9.83,7.93-19.05,21.8-27c28.19,16.14,80.87,27,141.2,27s113.01-10.86,141.2-27
				c13.87,7.95,21.8,17.17,21.8,27C338.896,120.544,332.025,129.165,319.896,136.714z"/>
			<path class="st75" d="M338.896,57.395c0,9.83-7.93,19.05-21.8,27c-28.19-16.14-80.87-27-141.2-27s-113.01,10.86-141.2,27
				c-13.87-7.95-21.8-17.17-21.8-27c0-29.82,72.98-54,163-54S338.896,27.575,338.896,57.395z"/>
			<path class="st75" d="M175.896,57.395c60.33,0,113.01,10.86,141.2,27c-28.19,16.14-80.87,27-141.2,27s-113.01-10.86-141.2-27
				C62.886,68.254,115.565,57.395,175.896,57.395z"/>
			<path class="st43" d="M12.896,57.395c0,9.83,7.93,19.05,21.8,27c-13.87,7.95-21.8,17.17-21.8,27V57.395z"/>
		</g>
	</g>
	<g>
		<ellipse class="st35" cx="175.895" cy="55.059" rx="142.16" ry="43.403"/>
		<g>
			<g>
				<defs>
					<rect id="SVGID_1_" x="-137.438" y="-40.608" width="626.666" height="191.334"/>
				</defs>
				<clipPath id="SVGID_2_">
					<use xlink:href="#SVGID_1_"  style="overflow:visible;"/>
				</clipPath>
				<g class="st41">
					<defs>
						<rect id="SVGID_3_" x="-137.438" y="-40.608" width="626.666" height="191.334"/>
					</defs>
					<clipPath id="SVGID_4_">
						<use xlink:href="#SVGID_3_"  style="overflow:visible;"/>
					</clipPath>
					<path class="st47" d="M202.763,56.371c-0.136,0.034-0.271,0.067-0.405,0.101c-3.191-0.929-9.916-3.062-21.311-7.449
						c-11.763-4.529-16.928-7.004-18.99-8.097c0.123-0.029,0.243-0.059,0.369-0.087L202.763,56.371z"/>
					<path class="st47" d="M202.763,56.371l-40.336-15.532c5.443-1.282,10.29-2.36,14.372-3.235c2.257,1.17,7.478,3.62,18.665,7.929
						c10.902,4.197,17.532,6.332,20.877,7.322C212.686,53.847,208.177,55.028,202.763,56.371"/>
					<path class="st47" d="M195.817,58.062c-5,1.195-9.463,2.213-13.331,3.066l-39.838-15.341c3.665-0.977,7.957-2.083,12.847-3.281
						c2.056,1.09,7.215,3.565,18.999,8.103C185.905,55.003,192.633,57.136,195.817,58.062"/>
					<path class="st47" d="M142.647,45.788l39.839,15.341c-0.158,0.036-0.318,0.07-0.473,0.104
						c-3.305-0.973-9.962-3.108-21.002-7.359c-11.355-4.372-16.561-6.83-18.763-7.978C142.381,45.859,142.513,45.823,142.647,45.788
						"/>
					<path class="st47" d="M221.395,51.45c-0.158,0.044-0.32,0.09-0.483,0.137c-3.434-1.026-9.992-3.157-20.578-7.233
						c-10.851-4.178-16.085-6.608-18.455-7.817c0.173-0.036,0.345-0.071,0.51-0.105L221.395,51.45z"/>
					<path class="st47" d="M175.501,62.628c-6.856,1.43-10.57,2.074-10.57,2.074s-8.48-1.5-21.595-6.55
						c-13.115-5.05-16.116-7.971-16.116-7.971s3.128-0.998,9.091-2.666c2.333,1.198,7.565,3.634,18.521,7.854
						C165.511,59.48,172.093,61.613,175.501,62.628"/>
					<path class="st47" d="M221.395,51.45l-39.005-15.019c5.411-1.109,8.495-1.662,8.495-1.662s9.511,2.355,21.013,6.784
						c11.503,4.43,16.697,7.737,16.697,7.737S226.289,50.056,221.395,51.45"/>
					<path class="st47" d="M139.278,56.527l-31.587,7.647c0.688,0.461,1.422,0.914,2.204,1.358c1.322,0.75,2.782,1.474,4.369,2.172
						l33.179-8.032L139.278,56.527z"/>
					<path class="st45" d="M175.236,30.221c-44.469,0-80.518,11.006-80.518,24.583c0,3.178,1.979,6.215,5.577,9.003
						c0.702,0.544,1.468,1.078,2.289,1.603c0.716,0.456,1.471,0.903,2.273,1.342c1.356,0.743,2.835,1.463,4.429,2.156
						c0.373,0.163,0.749,0.323,1.134,0.482c2.062,0.853,4.301,1.664,6.699,2.427c14.653,4.665,35.275,7.569,58.117,7.569
						c44.469,0,80.516-11.006,80.516-24.583S219.705,30.221,175.236,30.221 M227.684,70.818c-6.815,2.08-14.747,3.713-23.578,4.854
						c-9.141,1.18-18.854,1.778-28.87,1.778s-19.729-0.598-28.87-1.778c-8.833-1.141-16.766-2.774-23.578-4.854
						c-0.229-0.069-0.45-0.141-0.672-0.21c-2.437-0.763-4.681-1.571-6.724-2.42c-0.383-0.16-0.757-0.322-1.128-0.483
						c-1.587-0.699-3.046-1.423-4.37-2.172c-0.782-0.444-1.516-0.897-2.204-1.358c-0.272-0.185-0.543-0.369-0.802-0.556
						c-0.49-0.355-0.95-0.712-1.38-1.073c-2.952-2.474-4.446-5.072-4.446-7.742c0-3.058,1.963-6.024,5.827-8.814
						c3.736-2.697,9.085-5.119,15.9-7.199c6.812-2.08,14.746-3.713,23.578-4.854c9.141-1.18,18.854-1.779,28.87-1.779
						s19.729,0.599,28.87,1.779c8.831,1.141,16.763,2.774,23.578,4.854c6.815,2.081,12.163,4.502,15.898,7.199
						c3.867,2.791,5.828,5.756,5.828,8.814s-1.96,6.023-5.828,8.814C239.847,66.315,234.499,68.737,227.684,70.818"/>
					<path class="st46" d="M95.41,71.966c-1.228-0.895-18.61-1.5-18.61-1.5l7.369,3.605l-7.369,2.5c0,0,4.157-0.02,16.061,1.25
						c11.903,1.268,17.57,1.788,23.804,2.076c0.71-1.009,1.133-1.655,1.133-1.655S96.639,72.86,95.41,71.966"/>
					<path class="st46" d="M256.381,71.851c1.229-0.895,18.609-1.5,18.609-1.5l-7.368,3.604l7.368,2.5c0,0-4.155-0.02-16.058,1.25
						c-11.905,1.268-17.572,1.787-23.806,2.076c-0.709-1.009-1.132-1.655-1.132-1.655S255.153,72.745,256.381,71.851"/>
					<path class="st11" d="M259.451,76.147c0,0-18.655,3.23-84.038,3.23c-65.38,0-84.814-3.23-84.814-3.23v-8.652
						c0,0,34.444,2.83,84.426,2.83c49.981,0,84.426-2.83,84.426-2.83V76.147z"/>
					<path class="st73" d="M116.931,75.067c-0.411-0.476-0.816-0.953-1.215-1.429c-0.286,0.645-0.571,1.291-0.858,1.937
						c-0.995-0.042-1.99-0.083-2.981-0.127l1.892-4.059c1.05,0.045,2.1,0.09,3.151,0.133c0.583,0.669,1.178,1.339,1.788,2.007
						c1.137-0.6,2.261-1.202,3.374-1.804c1.053,0.039,2.104,0.077,3.158,0.115c-0.512,1.357-1.023,2.715-1.535,4.074
						c-0.998-0.036-1.993-0.071-2.989-0.108c0.257-0.647,0.516-1.293,0.775-1.94c-0.794,0.43-1.593,0.859-2.399,1.288
						C118.369,75.125,117.649,75.096,116.931,75.067"/>
					<path class="st73" d="M128.792,75.493c-0.207,0.189-0.414,0.379-0.625,0.569c-0.987-0.031-1.974-0.064-2.961-0.098
						c1.483-1.325,2.938-2.652,4.364-3.981c1.276,0.041,2.553,0.08,3.833,0.117c0.529,1.389,1.091,2.778,1.683,4.166
						c-0.989-0.027-1.978-0.055-2.967-0.083c-0.08-0.199-0.16-0.397-0.238-0.595C130.852,75.557,129.821,75.525,128.792,75.493
						 M131.532,74.694c-0.167-0.43-0.333-0.859-0.495-1.289c-0.438,0.411-0.881,0.822-1.323,1.234
						C130.32,74.658,130.926,74.676,131.532,74.694"/>
					<path class="st73" d="M140.618,72.293c-0.277,1.071-0.553,2.142-0.83,3.211c1.967,0.048,3.933,0.092,5.901,0.13
						c-0.063,0.292-0.126,0.585-0.19,0.877c-2.97-0.06-5.938-0.127-8.906-0.205c0.383-1.362,0.764-2.724,1.147-4.086
						C138.698,72.247,139.66,72.27,140.618,72.293"/>
					<path class="st73" d="M151.203,72.508c-0.189,1.073-0.382,2.145-0.571,3.218c1.969,0.032,3.938,0.061,5.908,0.086
						c-0.04,0.292-0.078,0.584-0.117,0.877c-2.975-0.037-5.946-0.083-8.919-0.139c0.273-1.364,0.545-2.728,0.818-4.093
						C149.281,72.475,150.242,72.493,151.203,72.508"/>
					<path class="st73" d="M167.57,72.684c-0.016,0.293-0.033,0.587-0.049,0.879c-1.936-0.009-3.872-0.023-5.807-0.04
						c-0.023,0.244-0.048,0.488-0.07,0.732c1.62,0.014,3.243,0.026,4.867,0.035c-0.02,0.292-0.037,0.586-0.056,0.879
						c-1.633-0.009-3.266-0.021-4.898-0.036c-0.022,0.244-0.047,0.488-0.072,0.732c1.971,0.018,3.943,0.032,5.912,0.042
						c-0.015,0.292-0.031,0.586-0.045,0.879c-2.975-0.016-5.95-0.039-8.925-0.072c0.162-1.366,0.326-2.732,0.487-4.098
						C161.8,72.647,164.684,72.67,167.57,72.684"/>
					<path class="st73" d="M169.517,72.692c2.886,0.011,5.771,0.012,8.657,0.005c0.009,0.293,0.016,0.585,0.024,0.879
						c-0.967,0.003-1.937,0.004-2.907,0.004c0.007,1.074,0.013,2.148,0.02,3.222c-0.993,0-1.985,0-2.975-0.001
						c0.015-1.074,0.035-2.148,0.052-3.222c-0.968-0.001-1.935-0.004-2.903-0.008C169.494,73.279,169.506,72.986,169.517,72.692"/>
					<path class="st73" d="M180.12,72.691c2.885-0.012,5.77-0.032,8.654-0.061c0.03,0.293,0.062,0.585,0.095,0.878
						c-0.969,0.009-1.937,0.019-2.904,0.026c0.092,1.074,0.184,2.147,0.275,3.221c-0.991,0.008-1.984,0.015-2.975,0.021
						c-0.068-1.073-0.136-2.147-0.206-3.221c-0.969,0.006-1.936,0.011-2.903,0.014C180.146,73.277,180.13,72.984,180.12,72.691"/>
					<path class="st73" d="M203.433,74.268c0.503,0.182,0.792,0.437,0.864,0.764c0.022,0.097,0.044,0.194,0.066,0.292
						c0.175,0.778-1.059,1.197-3.704,1.245c-1.649,0.03-3.301,0.057-4.952,0.081c-0.214-1.366-0.427-2.731-0.637-4.097
						c1.538-0.022,3.073-0.047,4.612-0.075c2.558-0.045,3.923,0.316,4.099,1.096C203.841,73.853,203.727,74.085,203.433,74.268
						 M198.105,73.386c0.037,0.195,0.071,0.39,0.105,0.585c0.583-0.01,1.167-0.02,1.75-0.03c0.647-0.011,0.95-0.115,0.911-0.311
						c-0.038-0.194-0.381-0.286-1.023-0.275C199.268,73.366,198.687,73.376,198.105,73.386 M198.367,74.849
						c0.051,0.293,0.102,0.585,0.156,0.877c0.656-0.011,1.311-0.022,1.967-0.034c0.656-0.012,0.966-0.115,0.926-0.311
						c-0.019-0.098-0.039-0.195-0.059-0.292c-0.038-0.194-0.383-0.286-1.036-0.274S199.018,74.837,198.367,74.849"/>
					<path class="st73" d="M214.292,72.143c0.088,0.292,0.177,0.583,0.264,0.875c-1.931,0.055-3.861,0.105-5.793,0.152
						c0.063,0.243,0.126,0.487,0.188,0.729c1.62-0.039,3.239-0.081,4.857-0.125c0.085,0.292,0.172,0.583,0.258,0.875
						c-1.628,0.044-3.259,0.086-4.889,0.126c0.065,0.243,0.126,0.487,0.19,0.729c1.965-0.047,3.932-0.098,5.896-0.153
						c0.088,0.291,0.177,0.583,0.265,0.875c-2.966,0.084-5.933,0.159-8.904,0.224c-0.323-1.363-0.644-2.727-0.965-4.09
						C208.538,72.296,211.416,72.224,214.292,72.143"/>
					<path class="st73" d="M224.851,71.805c0.112,0.291,0.223,0.582,0.336,0.873c-1.926,0.068-3.855,0.134-5.785,0.195
						c0.083,0.243,0.167,0.485,0.248,0.729c1.618-0.052,3.233-0.105,4.847-0.162c0.108,0.291,0.219,0.582,0.33,0.873
						c-1.625,0.057-3.252,0.112-4.877,0.162c0.079,0.243,0.165,0.486,0.245,0.729c1.963-0.062,3.925-0.128,5.887-0.199
						c0.11,0.291,0.225,0.582,0.333,0.873c-2.958,0.105-5.921,0.203-8.886,0.291c-0.434-1.361-0.864-2.721-1.297-4.082
						C219.108,72.001,221.981,71.907,224.851,71.805"/>
					<path class="st73" d="M227.89,74.497c0.978-0.036,1.954-0.074,2.931-0.112c0.019,0.048,0.041,0.097,0.061,0.145
						c0.08,0.194,0.447,0.278,1.1,0.251c0.328-0.013,0.653-0.026,0.979-0.04c0.653-0.026,0.935-0.137,0.85-0.33
						c-0.022-0.048-0.042-0.097-0.064-0.146c-0.086-0.193-0.454-0.276-1.103-0.25c-0.323,0.013-0.648,0.027-0.971,0.04
						c-2.601,0.103-4.056-0.238-4.364-1.013c-0.017-0.048-0.038-0.097-0.058-0.146c-0.308-0.776,0.816-1.209,3.359-1.31
						c0.321-0.014,0.639-0.025,0.957-0.039c2.546-0.104,3.998,0.226,4.362,1c0.022,0.048,0.046,0.097,0.068,0.145
						c-0.966,0.042-1.93,0.083-2.895,0.123c-0.021-0.049-0.042-0.097-0.063-0.146c-0.087-0.193-0.451-0.276-1.091-0.25
						c-0.323,0.013-0.641,0.027-0.96,0.039c-0.643,0.025-0.923,0.135-0.842,0.329c0.021,0.048,0.041,0.096,0.063,0.146
						c0.08,0.193,0.444,0.278,1.088,0.252c0.323-0.013,0.646-0.026,0.967-0.039c2.577-0.104,4.044,0.224,4.408,0.997
						c0.022,0.049,0.046,0.097,0.068,0.145c0.362,0.773-0.769,1.218-3.398,1.326c-0.328,0.013-0.658,0.027-0.988,0.041
						c-2.628,0.104-4.1-0.236-4.406-1.012C227.931,74.593,227.91,74.545,227.89,74.497"/>
					<path class="st47" d="M190.301,59.307c-5.615,1.933-8.245,4.925-3.704,7.697c2.271,1.423-5.976,3.539-7.05,0.657
						c-1.074-2.882-3.346-5.217-8.962-4.049c-7.407-1.35-14.016-7.55-12.813-7.096c5.407,2.043,20.043,3.447,14.786,1.642
						c-5.079-2.006,7.289-1.496,11.052-0.547S190.301,59.307,190.301,59.307"/>
					<ellipse class="st27" cx="175.896" cy="55.059" rx="141" ry="43.05"/>
				</g>
				<g class="st41">
					<text transform="matrix(0.3293 -0.3038 0.9949 0.1005 72.3047 46.1641)" class="st17 st18">P</text>
				</g>
				<g class="st41">
					<text transform="matrix(0.4088 -0.3029 0.9922 0.1248 75.3052 43.4507)" class="st17 st34">r</text>
				</g>
				<g class="st41">
					<text transform="matrix(0.4893 -0.3019 0.9888 0.1494 77.4893 41.7852)" class="st17 st71">o</text>
				</g>
				<g class="st41">
					<text transform="matrix(0.5936 -0.3003 0.9834 0.1812 81.3428 39.3901)" class="st17 st50">d</text>
				</g>
				<g class="st41">
					<text transform="matrix(0.7102 -0.2981 0.9762 0.2169 86.1006 36.9785)" class="st17 st48">u</text>
				</g>
				<g class="st41">
					<text transform="matrix(0.8318 -0.2953 0.9672 0.254 91.6299 34.6636)" class="st17 st22">c</text>
				</g>
				<g class="st41">
					<text transform="matrix(0.959 -0.2919 0.9562 0.2928 96.9697 32.7622)" class="st17 st78">e</text>
				</g>
				<g class="st41">
					<text transform="matrix(1.1113 -0.2872 0.9407 0.3393 102.9131 30.9414)" class="st17 st57">d</text>
				</g>
				<g class="st41">
					<text transform="matrix(1.259 -0.2819 0.9232 0.3844 110.0303 29.123)" class="st17 st52"> </text>
				</g>
				<g class="st41">
					<text transform="matrix(1.4272 -0.2748 0.9001 0.4358 114.7012 28.0518)" class="st17 st8">b</text>
				</g>
				<g class="st41">
					<text transform="matrix(1.6569 -0.2634 0.8626 0.5059 122.5352 26.5459)" class="st17 st77">y</text>
				</g>
				<g class="st41">
					<text transform="matrix(1.8724 -0.2505 0.8205 0.5717 130.124 25.3516)" class="st17 st39"> </text>
				</g>
				<g class="st41">
					<text transform="matrix(2.1459 -0.2307 0.7555 0.6552 135.4165 24.6138)" class="st17 st32">B</text>
				</g>
				<g class="st41">
					<text transform="matrix(2.4221 -0.2055 0.6732 0.7395 144.9966 23.6133)" class="st17 st28">i</text>
				</g>
				<g class="st41">
					<text transform="matrix(2.5932 -0.1865 0.6108 0.7918 149.2021 23.2578)" class="st17 st5">l</text>
				</g>
				<g class="st41">
					<text transform="matrix(2.7571 -0.1648 0.5398 0.8418 153.145 22.9727)" class="st17 st3">l</text>
				</g>
				<g class="st41">
					<text transform="matrix(2.9149 -0.1392 0.456 0.89 157.1357 22.7339)" class="st17 st1">,</text>
				</g>
				<g class="st41">
					<text transform="matrix(3.0844 -0.1027 0.3364 0.9417 161.1533 22.5361)" class="st17 st67"> </text>
				</g>
				<g class="st41">
					<text transform="matrix(3.2706 -0.0162 0.0532 0.9986 166.9175 22.2798)" class="st17 st36">M</text>
				</g>
				<g class="st41">
					<text transform="matrix(3.1189 0.0932 -0.3052 0.9523 182.082 22.2676)" class="st17 st66">a</text>
				</g>
				<g class="st41">
					<text transform="matrix(2.8768 0.1459 -0.478 0.8784 190.5889 22.5322)" class="st17 st2">r</text>
				</g>
				<g class="st41">
					<text transform="matrix(2.5899 0.1869 -0.6121 0.7908 196.3589 22.8081)" class="st17 st6">y</text>
				</g>
				<g class="st41">
					<text transform="matrix(2.3014 0.2172 -0.7115 0.7027 204.7007 23.4219)" class="st17 st31"> </text>
				</g>
				<g class="st41">
					<text transform="matrix(2.0356 0.2392 -0.7834 0.6215 210.2988 23.9346)" class="st17 st56">a</text>
				</g>
				<g class="st41">
					<text transform="matrix(1.7475 0.2582 -0.8458 0.5336 218.2441 24.8584)" class="st17 st76">n</text>
				</g>
				<g class="st41">
					<text transform="matrix(1.4934 0.2717 -0.89 0.456 226.6768 26.1021)" class="st17 st7">d</text>
				</g>
				<g class="st41">
					<text transform="matrix(1.3176 0.2795 -0.9155 0.4023 234.6011 27.5625)" class="st17 st33"> </text>
				</g>
				<g class="st41">
					<text transform="matrix(1.1075 0.2873 -0.9411 0.3382 239.4854 28.5088)" class="st17 st58">M</text>
				</g>
				<g class="st41">
					<text transform="matrix(0.9086 0.2933 -0.9607 0.2774 250.9604 31.5518)" class="st17 st79">a</text>
				</g>
				<g class="st41">
					<text transform="matrix(0.815 0.2957 -0.9685 0.2488 256.8135 33.4678)" class="st17 st23">l</text>
				</g>
				<g class="st41">
					<text transform="matrix(0.7579 0.297 -0.9729 0.2314 259.4399 34.4209)" class="st17 st24">l</text>
				</g>
				<g class="st41">
					<text transform="matrix(0.6751 0.2988 -0.9785 0.2061 261.9741 35.3789)" class="st17 st49">e</text>
				</g>
				<g class="st41">
					<text transform="matrix(0.5902 0.3003 -0.9836 0.1802 266.7446 37.5142)" class="st17 st51">t</text>
				</g>
				<g class="st41">
					<text transform="matrix(0.5282 0.3013 -0.9869 0.1613 269.4619 38.8955)" class="st17 st70">t</text>
				</g>
				<g class="st41">
					<text transform="matrix(0.4656 0.3022 -0.9898 0.1422 271.937 40.3003)" class="st17 st72"> </text>
				</g>
				<g class="st41">
					<text transform="matrix(0.3931 0.3031 -0.9928 0.12 274.4683 41.918)" class="st17 st16">s</text>
				</g>
				<g class="st41">
					<text transform="matrix(0.3086 0.304 -0.9956 0.0942 277.2607 44.0449)" class="st17 st19">o</text>
				</g>
				<g class="st41">
					<text transform="matrix(0.219 0.3046 -0.9978 0.0669 279.8652 46.5835)" class="st17 st20">n</text>
				</g>
				<g class="st41">
					<text transform="matrix(0.1378 0.305 -0.9991 0.0421 281.8506 49.3848)" class="st17 st40">s</text>
				</g>
				<g class="st41">
					<text transform="matrix(1.9702 0.2439 -0.7988 0.6016 125.8965 89.2041)" class="st17 st54">7</text>
				</g>
				<g class="st41">
					<text transform="matrix(2.2737 0.2198 -0.7198 0.6942 134.7705 90.293)" class="st17 st29">1</text>
				</g>
				<g class="st41">
					<text transform="matrix(2.6091 0.1846 -0.6045 0.7966 143.9336 91.1665)" class="st17 st4">2</text>
				</g>
				<g class="st41">
					<text transform="matrix(2.853 0.15 -0.4911 0.8711 153.0156 91.7822)" class="st17 st0">.</text>
				</g>
				<g class="st41">
					<text transform="matrix(3.0699 0.1064 -0.3485 0.9373 157.6313 92.0396)" class="st17 st65">6</text>
				</g>
				<g class="st41">
					<text transform="matrix(3.2532 0.0354 -0.1159 0.9933 167.1191 92.3594)" class="st17 st63">3</text>
				</g>
				<g class="st41">
					<text transform="matrix(3.2453 -0.0412 0.1349 0.9909 176.7085 92.4521)" class="st17 st64">5</text>
				</g>
				<g class="st41">
					<text transform="matrix(3.1175 -0.0936 0.3066 0.9518 185.9966 92.3086)" class="st17 st37">.</text>
				</g>
				<g class="st41">
					<text transform="matrix(2.9135 -0.1395 0.4568 0.8895 190.6938 92.1826)" class="st17 st68">3</text>
				</g>
				<g class="st41">
					<text transform="matrix(2.5821 -0.1878 0.6152 0.7884 200.1235 91.7212)" class="st17 st38">5</text>
				</g>
				<g class="st41">
					<text transform="matrix(2.2485 -0.222 0.7271 0.6865 209.4492 91.0317)" class="st17 st30">9</text>
				</g>
				<g class="st41">
					<text transform="matrix(1.9469 -0.2455 0.8042 0.5944 218.5747 90.1191)" class="st17 st55">5</text>
				</g>
			</g>
		</g>
	</g>
</g>
<g id="Layer_3">
</g>
</svg>
